<svg xmlns="http://www.w3.org/2000/svg" width="278" height="278" viewBox="0 0 278 278">
<g>
<path d="M 278.00,278.00 L 0.00,278.00 L 0.00,0.00 L 278.00,0.00 M 192.23,114.33 L 191.42,114.66 L 190.98,114.92 L 190.09,115.50 L 189.60,115.88 L 188.60,116.72 L 188.05,117.24 L 186.92,118.35 L 186.31,119.00 L 184.78,120.60 L 183.91,121.47 L 183.54,121.81 L 182.14,122.98 L 181.48,123.31 L 180.13,123.80 L 179.28,123.90 L 177.42,124.00 L 176.10,124.00 L 170.61,124.00 L 173.78,127.28 L 176.96,130.55 L 137.40,180.03 L 129.44,189.98 L 124.36,196.33 L 121.97,199.31 L 117.30,205.14 L 115.16,207.80 L 111.02,212.97 L 109.19,215.25 L 107.39,217.49 L 106.56,218.52 L 104.95,220.53 L 104.21,221.45 L 102.78,223.22 L 102.14,224.01 L 100.92,225.53 L 100.39,226.19 L 99.39,227.43 L 98.97,227.95 L 98.20,228.90 L 97.90,229.26 L 97.37,229.91 L 97.20,230.11 L 96.94,230.44 L 96.90,230.47 L 96.35,230.72 L 95.89,230.67 L 95.62,230.54 L 95.06,230.22 L 94.74,229.96 L 94.08,229.36 L 93.72,228.97 L 92.89,228.05 L 91.99,227.06 L 91.39,226.39 L 90.09,224.95 L 89.30,224.08 L 87.65,222.24 L 86.71,221.20 L 84.77,219.04 L 83.70,217.86 L 81.52,215.44 L 80.36,214.15 L 75.56,208.82 L 73.02,206.00 L 65.79,198.00 L 63.60,195.58 L 62.59,194.47 L 60.64,192.32 L 59.77,191.37 L 58.11,189.55 L 57.41,188.79 L 56.09,187.35 L 55.58,186.80 L 54.66,185.81 L 54.37,185.51 L 53.90,185.02 L 53.85,184.98 L 53.87,184.71 L 54.05,184.36 L 54.22,184.11 L 55.07,182.93 L 55.75,182.11 L 57.26,180.34 L 58.20,179.29 L 60.19,177.11 L 61.32,175.94 L 68.57,168.32 L 70.90,165.83 L 71.91,164.75 L 73.81,162.70 L 74.50,161.95 L 75.82,160.52 L 76.96,159.29 L 77.65,158.55 L 79.10,156.99 L 79.92,156.12 L 81.62,154.30 L 82.54,153.32 L 86.41,149.20 L 88.51,146.98 L 92.75,142.48 L 94.87,140.24 L 110.23,124.00 L 96.90,124.00 L 88.58,132.75 L 86.50,134.95 L 84.78,136.77 L 83.78,137.84 L 81.68,140.07 L 80.52,141.31 L 78.12,143.86 L 76.84,145.23 L 71.52,150.92 L 68.71,153.93 L 63.05,160.00 L 60.30,162.94 L 40.34,184.39 L 65.17,211.78 L 89.99,239.18 L 85.64,244.84 L 83.84,247.21 L 82.87,248.56 L 82.48,249.13 L 81.77,250.23 L 81.51,250.70 L 81.06,251.59 L 80.92,251.98 L 80.58,253.40 L 80.71,254.01 L 81.16,255.22 L 81.63,255.89 L 82.34,256.80 L 82.70,257.13 L 83.43,257.71 L 83.81,257.87 L 84.59,258.10 L 85.01,258.08 L 85.86,257.95 L 86.32,257.75 L 87.27,257.25 L 87.78,256.86 L 88.84,255.99 L 89.43,255.40 L 90.63,254.14 L 91.29,253.36 L 92.65,251.70 L 93.40,250.71 L 95.11,248.65 L 96.09,247.78 L 96.65,247.54 L 97.86,247.16 L 98.71,247.09 L 99.60,247.03 L 100.14,247.02 L 101.27,247.00 L 101.95,247.00 L 106.18,246.81 L 107.24,246.68 L 107.61,246.61 L 108.22,246.44 L 108.31,246.36 L 108.32,245.84 L 108.10,245.26 L 107.88,244.90 L 106.78,243.23 L 105.95,242.29 L 102.94,238.87 L 107.22,233.49 L 116.79,221.47 L 122.82,213.91 L 125.66,210.34 L 131.23,203.36 L 133.84,200.09 L 138.96,193.68 L 141.35,190.69 L 146.03,184.84 L 148.21,182.13 L 152.45,176.84 L 154.41,174.40 L 158.23,169.65 L 159.98,167.48 L 163.38,163.26 L 164.93,161.35 L 167.92,157.66 L 169.27,156.00 L 171.86,152.82 L 173.01,151.42 L 175.22,148.74 L 176.17,147.58 L 178.00,145.39 L 178.76,144.47 L 180.21,142.76 L 180.80,142.08 L 181.88,140.84 L 182.28,140.39 L 183.01,139.61 L 183.24,139.39 L 183.61,139.05 L 183.67,139.05 L 184.39,139.33 L 185.07,139.80 L 185.48,140.14 L 187.26,141.78 L 188.17,142.84 L 189.20,144.01 L 190.22,145.15 L 190.86,145.87 L 192.25,147.43 L 193.07,148.34 L 194.78,150.24 L 195.74,151.30 L 197.71,153.49 L 198.77,154.67 L 200.95,157.08 L 202.10,158.35 L 206.81,163.56 L 209.25,166.26 L 216.14,173.91 L 218.21,176.24 L 219.16,177.30 L 220.98,179.37 L 221.79,180.29 L 223.32,182.04 L 223.96,182.78 L 225.15,184.17 L 225.60,184.71 L 226.40,185.68 L 226.64,185.98 L 227.00,186.47 L 227.00,186.52 L 226.68,186.99 L 226.15,187.64 L 225.75,188.11 L 224.85,189.15 L 224.28,189.80 L 223.04,191.19 L 222.31,192.00 L 220.78,193.70 L 219.92,194.66 L 218.13,196.63 L 217.15,197.70 L 213.03,202.20 L 210.73,204.70 L 206.00,209.81 L 203.51,212.49 L 198.48,217.88 L 195.96,220.57 L 190.94,225.91 L 188.55,228.44 L 183.85,233.38 L 181.73,235.59 L 178.24,239.26 L 176.40,241.25 L 175.73,242.04 L 174.52,243.50 L 174.16,244.07 L 173.58,245.08 L 173.53,245.45 L 173.57,246.09 L 173.81,246.31 L 174.45,246.67 L 174.99,246.77 L 176.21,246.93 L 177.04,246.96 L 178.84,247.00 L 179.95,247.00 L 182.69,246.88 L 184.06,246.60 L 184.67,246.28 L 185.88,245.50 L 186.57,244.85 L 187.29,244.15 L 187.70,243.72 L 188.56,242.80 L 189.06,242.25 L 198.09,232.38 L 204.44,225.49 L 207.57,222.12 L 210.68,218.78 L 212.18,217.17 L 215.15,214.00 L 216.55,212.51 L 219.30,209.59 L 220.57,208.25 L 223.02,205.67 L 224.10,204.53 L 228.11,200.32 L 230.73,197.54 L 231.92,196.27 L 234.19,193.83 L 235.10,192.84 L 235.97,191.90 L 236.32,191.51 L 236.99,190.77 L 237.23,190.50 L 240.75,186.50 L 221.78,165.50 L 214.01,156.91 L 211.50,154.15 L 210.31,152.84 L 207.96,150.25 L 206.87,149.05 L 204.74,146.72 L 203.78,145.67 L 201.94,143.65 L 201.15,142.79 L 199.66,141.17 L 199.08,140.53 L 198.01,139.38 L 197.65,139.00 L 194.84,136.01 L 193.35,134.40 L 192.79,133.76 L 191.79,132.57 L 191.46,132.08 L 190.90,131.18 L 190.77,130.79 L 190.61,130.05 L 190.67,129.69 L 190.87,128.99 L 191.09,128.62 L 191.62,127.84 L 191.99,127.38 L 192.79,126.39 L 193.28,125.78 L 194.78,123.86 L 195.61,122.70 L 195.94,122.18 L 197.06,120.22 L 197.31,119.42 L 197.61,117.93 L 197.47,117.30 L 196.98,116.12 L 196.46,115.61 L 194.44,114.27 L 193.02,114.07 M 95.00,38.60 L 86.05,41.57 L 80.36,43.46 L 77.69,44.35 L 72.47,46.08 L 70.09,46.88 L 65.48,48.42 L 63.44,49.10 L 59.56,50.41 L 57.93,50.96 L 54.90,51.99 L 53.74,52.38 L 52.65,52.76 L 52.20,52.91 L 51.37,53.20 L 51.06,53.31 L 50.50,53.51 L 50.34,53.57 L 50.07,53.67 L 50.06,53.68 L 50.15,54.41 L 50.94,55.06 L 51.67,55.47 L 53.36,56.34 L 54.53,56.84 L 57.07,57.89 L 58.64,58.48 L 61.97,59.70 L 63.91,60.37 L 67.97,61.73 L 70.25,62.46 L 74.98,63.94 L 77.58,64.72 L 82.92,66.30 L 85.79,67.12 L 90.09,68.34 L 89.93,80.25 L 89.89,84.06 L 89.88,86.14 L 89.90,86.98 L 89.93,88.54 L 89.97,89.16 L 90.06,90.29 L 90.13,90.73 L 90.49,92.19 L 90.81,92.64 L 91.57,93.43 L 92.14,93.83 L 93.06,94.38 L 94.09,94.95 L 94.79,95.32 L 96.31,96.12 L 97.22,96.59 L 99.16,97.59 L 100.27,98.15 L 102.56,99.31 L 103.81,99.94 L 106.39,101.23 L 107.77,101.91 L 113.47,104.72 L 116.50,106.19 L 122.43,109.07 L 125.10,110.35 L 127.71,111.60 L 128.91,112.17 L 131.23,113.28 L 132.26,113.76 L 134.23,114.69 L 135.06,115.08 L 136.62,115.80 L 137.23,116.08 L 138.31,116.57 L 138.66,116.72 L 139.20,116.94 L 139.26,116.94 L 139.90,116.72 L 140.78,116.35 L 141.42,116.07 L 142.83,115.44 L 143.70,115.05 L 145.54,114.20 L 146.60,113.71 L 148.81,112.68 L 150.02,112.11 L 152.50,110.94 L 153.82,110.32 L 159.29,107.72 L 162.12,106.36 L 167.82,103.63 L 170.53,102.31 L 173.21,101.01 L 174.48,100.39 L 176.95,99.18 L 178.09,98.62 L 180.28,97.54 L 181.24,97.06 L 183.07,96.14 L 183.81,95.76 L 185.20,95.05 L 185.69,94.79 L 186.55,94.32 L 186.75,94.19 L 188.00,93.12 L 188.29,92.65 L 188.40,92.34 L 188.60,91.66 L 188.67,91.22 L 188.81,90.24 L 188.85,89.61 L 188.93,88.25 L 188.95,87.40 L 188.98,85.56 L 188.99,84.44 L 189.00,82.04 L 189.00,68.43 L 208.05,62.54 L 215.49,60.17 L 217.75,59.43 L 218.79,59.08 L 220.79,58.40 L 221.68,58.09 L 223.38,57.49 L 224.10,57.23 L 225.45,56.72 L 225.97,56.51 L 226.90,56.13 L 227.19,55.99 L 227.66,55.74 L 227.70,55.67 L 227.64,54.63 L 227.10,53.82 L 226.65,53.48 L 226.26,53.29 L 225.78,53.09 L 225.44,52.95 L 224.70,52.66 L 224.23,52.48 L 223.22,52.11 L 222.63,51.89 L 220.03,50.95 L 218.40,50.38 L 214.93,49.16 L 212.92,48.46 L 208.72,47.01 L 206.39,46.21 L 201.57,44.57 L 198.97,43.69 L 193.66,41.89 L 190.87,40.96 L 185.18,39.06 L 182.25,38.08 L 139.50,23.89 Z" fill="rgb(62,72,203)"/>
<path d="M 194.44,114.27 L 196.46,115.61 L 196.98,116.12 L 197.47,117.30 L 197.61,117.93 L 197.31,119.42 L 197.06,120.22 L 195.94,122.18 L 195.61,122.70 L 194.78,123.86 L 193.28,125.78 L 192.79,126.39 L 191.99,127.38 L 191.62,127.84 L 191.09,128.62 L 190.87,128.99 L 190.67,129.69 L 190.61,130.05 L 190.77,130.79 L 190.90,131.18 L 191.46,132.08 L 191.79,132.57 L 192.79,133.76 L 193.35,134.40 L 194.84,136.01 L 197.65,139.00 L 198.01,139.38 L 199.08,140.53 L 199.66,141.17 L 201.15,142.79 L 201.94,143.65 L 203.78,145.67 L 204.74,146.72 L 206.87,149.05 L 207.96,150.25 L 210.31,152.84 L 211.50,154.15 L 214.01,156.91 L 221.78,165.50 L 240.75,186.50 L 237.23,190.50 L 236.99,190.77 L 236.32,191.51 L 235.97,191.90 L 235.10,192.84 L 234.19,193.83 L 231.92,196.27 L 230.73,197.54 L 228.11,200.32 L 224.10,204.53 L 223.02,205.67 L 220.57,208.25 L 219.30,209.59 L 216.55,212.51 L 215.15,214.00 L 212.18,217.17 L 210.68,218.78 L 207.57,222.12 L 204.44,225.49 L 198.09,232.38 L 189.06,242.25 L 188.56,242.80 L 187.70,243.72 L 187.29,244.15 L 186.57,244.85 L 185.88,245.50 L 184.67,246.28 L 184.06,246.60 L 182.69,246.88 L 179.95,247.00 L 178.84,247.00 L 177.04,246.96 L 176.21,246.93 L 174.99,246.77 L 174.45,246.67 L 173.81,246.31 L 173.57,246.09 L 173.53,245.45 L 173.58,245.08 L 174.16,244.07 L 174.52,243.50 L 175.73,242.04 L 176.40,241.25 L 178.24,239.26 L 181.73,235.59 L 183.85,233.38 L 188.55,228.44 L 190.94,225.91 L 195.96,220.57 L 198.48,217.88 L 203.51,212.49 L 206.00,209.81 L 210.73,204.70 L 213.03,202.20 L 217.15,197.70 L 218.13,196.63 L 219.92,194.66 L 220.78,193.70 L 222.31,192.00 L 223.04,191.19 L 224.28,189.80 L 224.85,189.15 L 225.75,188.11 L 226.15,187.64 L 226.68,186.99 L 227.00,186.52 L 227.00,186.47 L 226.64,185.98 L 226.40,185.68 L 225.60,184.71 L 225.15,184.17 L 223.96,182.78 L 223.32,182.04 L 221.79,180.29 L 220.98,179.37 L 219.16,177.30 L 218.21,176.24 L 216.14,173.91 L 209.25,166.26 L 206.81,163.56 L 202.10,158.35 L 200.95,157.08 L 198.77,154.67 L 197.71,153.49 L 195.74,151.30 L 194.78,150.24 L 193.07,148.34 L 192.25,147.43 L 190.86,145.87 L 190.22,145.15 L 189.20,144.01 L 188.17,142.84 L 187.26,141.78 L 185.48,140.14 L 185.07,139.80 L 184.39,139.33 L 183.67,139.05 L 183.61,139.05 L 183.24,139.39 L 183.01,139.61 L 182.28,140.39 L 181.88,140.84 L 180.80,142.08 L 180.21,142.76 L 178.76,144.47 L 178.00,145.39 L 176.17,147.58 L 175.22,148.74 L 173.01,151.42 L 171.86,152.82 L 169.27,156.00 L 167.92,157.66 L 164.93,161.35 L 163.38,163.26 L 159.98,167.48 L 158.23,169.65 L 154.41,174.40 L 152.45,176.84 L 148.21,182.13 L 146.03,184.84 L 141.35,190.69 L 138.96,193.68 L 133.84,200.09 L 131.23,203.36 L 125.66,210.34 L 122.82,213.91 L 116.79,221.47 L 107.22,233.49 L 102.94,238.87 L 105.95,242.29 L 106.78,243.23 L 107.88,244.90 L 108.10,245.26 L 108.32,245.84 L 108.31,246.36 L 108.22,246.44 L 107.61,246.61 L 107.24,246.68 L 106.18,246.81 L 101.95,247.00 L 101.27,247.00 L 100.14,247.02 L 99.60,247.03 L 98.71,247.09 L 97.86,247.16 L 96.65,247.54 L 96.09,247.78 L 95.11,248.65 L 93.40,250.71 L 92.65,251.70 L 91.29,253.36 L 90.63,254.14 L 89.43,255.40 L 88.84,255.99 L 87.78,256.86 L 87.27,257.25 L 86.32,257.75 L 85.86,257.95 L 85.01,258.08 L 84.59,258.10 L 83.81,257.87 L 83.43,257.71 L 82.70,257.13 L 82.34,256.80 L 81.63,255.89 L 81.16,255.22 L 80.71,254.01 L 80.58,253.40 L 80.92,251.98 L 81.06,251.59 L 81.51,250.70 L 81.77,250.23 L 82.48,249.13 L 82.87,248.56 L 83.84,247.21 L 85.64,244.84 L 89.99,239.18 L 65.17,211.78 L 40.34,184.39 L 60.30,162.94 L 63.05,160.00 L 68.71,153.93 L 71.52,150.92 L 76.84,145.23 L 78.12,143.86 L 80.52,141.31 L 81.68,140.07 L 83.78,137.84 L 84.78,136.77 L 86.50,134.95 L 88.58,132.75 L 96.90,124.00 L 110.23,124.00 L 94.87,140.24 L 92.75,142.48 L 88.51,146.98 L 86.41,149.20 L 82.54,153.32 L 81.62,154.30 L 79.92,156.12 L 79.10,156.99 L 77.65,158.55 L 76.96,159.29 L 75.82,160.52 L 74.50,161.95 L 73.81,162.70 L 71.91,164.75 L 70.90,165.83 L 68.57,168.32 L 61.32,175.94 L 60.19,177.11 L 58.20,179.29 L 57.26,180.34 L 55.75,182.11 L 55.07,182.93 L 54.22,184.11 L 54.05,184.36 L 53.87,184.71 L 53.85,184.98 L 53.90,185.02 L 54.37,185.51 L 54.66,185.81 L 55.58,186.80 L 56.09,187.35 L 57.41,188.79 L 58.11,189.55 L 59.77,191.37 L 60.64,192.32 L 62.59,194.47 L 63.60,195.58 L 65.79,198.00 L 73.02,206.00 L 75.56,208.82 L 80.36,214.15 L 81.52,215.44 L 83.70,217.86 L 84.77,219.04 L 86.71,221.20 L 87.65,222.24 L 89.30,224.08 L 90.09,224.95 L 91.39,226.39 L 91.99,227.06 L 92.89,228.05 L 93.72,228.97 L 94.08,229.36 L 94.74,229.96 L 95.06,230.22 L 95.62,230.54 L 95.89,230.67 L 96.35,230.72 L 96.90,230.47 L 96.94,230.44 L 97.20,230.11 L 97.37,229.91 L 97.90,229.26 L 98.20,228.90 L 98.97,227.95 L 99.39,227.43 L 100.39,226.19 L 100.92,225.53 L 102.14,224.01 L 102.78,223.22 L 104.21,221.45 L 104.95,220.53 L 106.56,218.52 L 107.39,217.49 L 109.19,215.25 L 111.02,212.97 L 115.16,207.80 L 117.30,205.14 L 121.97,199.31 L 124.36,196.33 L 129.44,189.98 L 137.40,180.03 L 176.96,130.55 L 173.78,127.28 L 170.61,124.00 L 176.10,124.00 L 177.42,124.00 L 179.28,123.90 L 180.13,123.80 L 181.48,123.31 L 182.14,122.98 L 183.54,121.81 L 183.91,121.47 L 184.78,120.60 L 186.31,119.00 L 186.92,118.35 L 188.05,117.24 L 188.60,116.72 L 189.60,115.88 L 190.09,115.50 L 190.98,114.92 L 191.42,114.66 L 192.23,114.33 L 193.02,114.07 M 192.91,117.18 L 192.01,117.48 L 191.42,117.82 L 190.17,118.63 L 189.43,119.25 L 187.88,120.61 L 187.00,121.50 L 184.67,123.72 L 183.37,124.76 L 182.78,125.10 L 181.63,125.66 L 181.05,125.80 L 179.85,126.00 L 179.17,126.00 L 177.45,126.05 L 176.75,126.16 L 176.59,126.27 L 176.40,126.52 L 176.48,126.72 L 176.73,127.18 L 177.00,127.49 L 177.74,129.22 L 177.92,130.65 L 177.80,131.28 L 177.55,131.77 L 177.18,132.34 L 176.90,132.75 L 176.27,133.64 L 175.87,134.20 L 175.01,135.39 L 174.49,136.09 L 173.40,137.56 L 172.77,138.39 L 171.46,140.12 L 170.74,141.07 L 169.23,143.05 L 168.41,144.12 L 166.71,146.32 L 165.80,147.50 L 161.99,152.41 L 159.86,155.14 L 155.45,160.77 L 153.06,163.80 L 148.17,169.99 L 145.58,173.25 L 140.31,179.86 L 137.58,183.28 L 132.12,190.09 L 128.72,194.34 L 127.13,196.31 L 124.02,200.17 L 122.57,201.96 L 119.75,205.45 L 118.45,207.06 L 115.90,210.19 L 114.73,211.63 L 112.45,214.42 L 111.40,215.69 L 109.37,218.15 L 108.44,219.26 L 106.65,221.41 L 105.84,222.37 L 104.28,224.22 L 103.58,225.03 L 102.23,226.59 L 101.63,227.27 L 100.48,228.56 L 99.98,229.11 L 99.03,230.14 L 98.62,230.56 L 97.85,231.35 L 97.52,231.66 L 96.92,232.22 L 96.68,232.41 L 95.85,232.99 L 95.65,232.99 L 94.67,232.48 L 93.62,231.66 L 92.91,231.03 L 91.40,229.65 L 90.49,228.78 L 88.59,226.92 L 87.52,225.85 L 85.31,223.60 L 84.12,222.36 L 81.68,219.82 L 80.40,218.46 L 75.15,212.83 L 72.48,209.90 L 67.17,204.00 L 64.70,201.19 L 62.28,198.41 L 61.15,197.10 L 58.97,194.53 L 57.99,193.35 L 56.12,191.08 L 55.32,190.08 L 53.84,188.19 L 53.28,187.42 L 52.27,185.99 L 51.96,185.49 L 51.50,184.61 L 51.50,184.41 L 51.69,183.85 L 52.01,183.29 L 52.26,182.92 L 52.82,182.11 L 53.20,181.61 L 54.01,180.56 L 54.51,179.94 L 55.57,178.65 L 56.19,177.91 L 57.49,176.37 L 58.23,175.52 L 59.78,173.74 L 60.64,172.77 L 62.42,170.76 L 63.40,169.67 L 65.42,167.43 L 66.52,166.22 L 68.77,163.75 L 69.98,162.43 L 72.47,159.73 L 73.80,158.30 L 76.51,155.38 L 77.96,153.83 L 80.90,150.69 L 82.45,149.03 L 85.62,145.67 L 87.29,143.91 L 90.68,140.32 L 92.46,138.45 L 96.07,134.65 L 97.96,132.68 L 104.47,125.85 L 100.96,126.18 L 99.77,126.42 L 98.92,126.76 L 98.42,127.06 L 97.36,127.75 L 96.71,128.28 L 95.30,129.47 L 94.43,130.29 L 92.54,132.09 L 91.37,133.26 L 90.15,134.49 L 89.48,135.17 L 88.09,136.60 L 87.33,137.40 L 85.74,139.05 L 84.87,139.97 L 83.08,141.86 L 82.10,142.90 L 80.08,145.04 L 78.97,146.22 L 76.71,148.63 L 75.47,149.94 L 70.17,155.61 L 66.95,159.04 L 65.49,160.60 L 62.67,163.62 L 61.40,164.98 L 58.95,167.60 L 57.85,168.78 L 55.75,171.04 L 54.82,172.04 L 53.04,173.96 L 52.26,174.81 L 50.78,176.43 L 50.14,177.13 L 48.92,178.47 L 48.41,179.04 L 47.44,180.13 L 47.04,180.59 L 46.28,181.46 L 45.98,181.82 L 44.95,183.08 L 44.67,183.49 L 44.23,184.19 L 44.16,184.40 L 44.11,184.76 L 44.16,184.89 L 44.71,185.60 L 45.53,186.57 L 46.15,187.28 L 47.51,188.84 L 48.38,189.82 L 50.22,191.90 L 51.30,193.11 L 53.56,195.64 L 54.82,197.05 L 57.43,199.95 L 58.84,201.52 L 61.73,204.72 L 63.26,206.41 L 66.37,209.84 L 67.98,211.61 L 72.70,216.83 L 75.70,220.17 L 77.10,221.75 L 79.84,224.85 L 81.09,226.28 L 83.51,229.05 L 84.57,230.29 L 86.60,232.66 L 87.45,233.68 L 89.03,235.58 L 89.62,236.32 L 90.68,237.68 L 91.00,238.12 L 91.48,238.85 L 91.48,238.96 L 91.15,240.01 L 90.61,241.07 L 90.21,241.73 L 89.35,243.11 L 88.83,243.87 L 87.73,245.43 L 87.13,246.22 L 85.38,248.67 L 84.45,250.15 L 84.12,250.79 L 83.55,251.97 L 83.42,252.43 L 83.26,253.23 L 83.35,253.47 L 83.85,254.52 L 84.19,254.72 L 84.54,254.86 L 84.75,254.84 L 85.19,254.74 L 85.46,254.59 L 86.02,254.24 L 86.35,253.96 L 87.06,253.33 L 87.47,252.91 L 88.35,252.00 L 88.86,251.43 L 89.93,250.22 L 90.54,249.50 L 91.99,247.83 L 92.82,246.91 L 93.19,246.54 L 94.54,245.26 L 95.14,244.88 L 96.31,244.29 L 96.97,244.16 L 98.36,244.00 L 99.28,244.00 L 101.44,243.95 L 102.29,243.85 L 102.47,243.73 L 102.66,243.44 L 102.56,243.20 L 102.22,242.65 L 101.89,242.25 L 100.89,240.52 L 100.49,239.27 L 100.50,238.81 L 100.70,238.42 L 101.04,237.92 L 101.31,237.54 L 101.90,236.72 L 102.29,236.20 L 103.11,235.09 L 103.61,234.43 L 104.65,233.04 L 105.25,232.26 L 106.50,230.62 L 107.19,229.72 L 108.63,227.85 L 109.41,226.84 L 111.01,224.77 L 111.86,223.66 L 115.44,219.05 L 117.42,216.52 L 121.49,211.30 L 123.66,208.53 L 128.08,202.89 L 130.38,199.97 L 135.03,194.06 L 137.39,191.07 L 146.89,179.05 L 151.46,173.31 L 155.97,167.63 L 158.11,164.95 L 162.32,159.69 L 164.26,157.27 L 168.02,152.60 L 169.68,150.54 L 171.31,148.52 L 172.06,147.60 L 173.53,145.80 L 174.19,144.99 L 175.47,143.43 L 176.04,142.75 L 177.12,141.44 L 177.58,140.90 L 178.45,139.87 L 178.80,139.47 L 179.43,138.74 L 179.66,138.50 L 181.48,137.05 L 182.79,136.40 L 183.27,136.36 L 184.12,136.66 L 185.00,137.28 L 185.66,137.86 L 186.36,138.49 L 186.77,138.89 L 187.65,139.73 L 188.16,140.24 L 189.24,141.33 L 189.86,141.97 L 191.16,143.32 L 191.90,144.10 L 193.45,145.74 L 194.32,146.68 L 196.14,148.63 L 197.16,149.73 L 199.27,152.01 L 200.44,153.29 L 202.86,155.94 L 204.20,157.41 L 206.96,160.44 L 208.48,162.11 L 211.60,165.55 L 213.31,167.43 L 216.81,171.30 L 218.72,173.41 L 222.63,177.74 L 224.75,180.09 L 227.75,183.99 L 228.45,185.16 L 228.66,185.63 L 229.00,186.50 L 229.00,186.77 L 228.64,187.86 L 228.09,188.83 L 227.68,189.38 L 225.74,191.75 L 224.50,192.89 L 222.75,194.56 L 221.72,195.59 L 221.31,196.04 L 220.56,196.86 L 220.32,197.16 L 219.96,197.67 L 219.95,197.77 L 219.50,198.38 L 218.79,199.21 L 218.25,199.83 L 217.04,201.18 L 216.26,202.03 L 214.62,203.84 L 213.65,204.90 L 211.62,207.09 L 210.48,208.32 L 208.13,210.84 L 206.85,212.21 L 204.23,214.99 L 202.85,216.47 L 200.03,219.45 L 198.56,221.00 L 194.99,224.77 L 192.83,227.05 L 191.85,228.09 L 189.96,230.09 L 189.11,230.99 L 187.48,232.74 L 186.76,233.51 L 185.37,235.01 L 184.77,235.68 L 183.61,236.95 L 183.11,237.51 L 182.17,238.57 L 181.77,239.03 L 181.02,239.91 L 180.72,240.29 L 179.68,241.62 L 179.41,242.08 L 178.99,242.88 L 178.98,243.12 L 179.08,243.52 L 179.27,243.62 L 179.75,243.77 L 180.09,243.81 L 182.48,243.54 L 184.24,242.94 L 185.04,242.52 L 186.57,241.59 L 187.10,241.09 L 187.58,240.59 L 187.72,240.35 L 187.96,239.86 L 187.97,239.64 L 188.26,239.08 L 188.72,238.44 L 189.07,238.02 L 189.84,237.09 L 190.32,236.53 L 191.35,235.35 L 191.94,234.69 L 194.53,231.85 L 196.02,230.25 L 199.12,226.97 L 200.73,225.30 L 203.96,221.98 L 205.49,220.44 L 208.46,217.46 L 209.73,216.25 L 210.94,215.08 L 211.47,214.59 L 212.47,213.68 L 212.87,213.33 L 213.60,212.71 L 213.85,212.53 L 214.27,212.27 L 214.34,212.28 L 215.17,211.97 L 215.51,211.34 L 215.52,210.90 L 215.74,210.34 L 216.10,209.77 L 216.37,209.38 L 216.98,208.56 L 217.37,208.06 L 218.20,207.03 L 218.69,206.44 L 220.83,203.93 L 222.12,202.50 L 224.82,199.53 L 226.30,197.98 L 237.07,186.66 L 234.22,183.58 L 233.45,182.74 L 232.76,181.98 L 232.34,181.52 L 230.46,179.45 L 229.30,178.18 L 226.86,175.49 L 225.53,174.02 L 222.81,171.02 L 221.44,169.51 L 219.20,167.04 L 217.53,165.20 L 216.63,164.21 L 212.86,160.08 L 210.87,157.90 L 206.84,153.49 L 204.89,151.36 L 201.07,147.21 L 199.41,145.40 L 196.66,142.39 L 195.00,140.52 L 194.26,139.67 L 192.82,138.01 L 192.19,137.26 L 191.00,135.81 L 190.49,135.16 L 189.54,133.94 L 189.15,133.41 L 188.45,132.41 L 188.20,132.00 L 187.75,131.24 L 187.63,130.95 L 187.45,130.44 L 187.46,130.28 L 187.77,129.19 L 188.20,128.23 L 188.50,127.68 L 189.93,125.36 L 190.80,124.25 L 192.70,121.60 L 193.55,120.12 L 193.79,119.53 L 194.15,118.45 L 194.16,118.08 L 194.05,117.43 L 193.84,117.28 L 193.32,117.09 M 182.25,38.08 L 185.18,39.06 L 190.87,40.96 L 193.66,41.89 L 198.97,43.69 L 201.57,44.57 L 206.39,46.21 L 208.72,47.01 L 212.92,48.46 L 214.93,49.16 L 218.40,50.38 L 220.03,50.95 L 222.63,51.89 L 223.22,52.11 L 224.23,52.48 L 224.70,52.66 L 225.44,52.95 L 225.78,53.09 L 226.26,53.29 L 226.65,53.48 L 227.10,53.82 L 227.64,54.63 L 227.70,55.67 L 227.66,55.74 L 227.19,55.99 L 226.90,56.13 L 225.97,56.51 L 225.45,56.72 L 224.10,57.23 L 223.38,57.49 L 221.68,58.09 L 220.79,58.40 L 218.79,59.08 L 217.75,59.43 L 215.49,60.17 L 208.05,62.54 L 189.00,68.43 L 189.00,82.04 L 188.99,84.44 L 188.98,85.56 L 188.95,87.40 L 188.93,88.25 L 188.85,89.61 L 188.81,90.24 L 188.67,91.22 L 188.60,91.66 L 188.40,92.34 L 188.29,92.65 L 188.00,93.12 L 186.75,94.19 L 186.55,94.32 L 185.69,94.79 L 185.20,95.05 L 183.81,95.76 L 183.07,96.14 L 181.24,97.06 L 180.28,97.54 L 178.09,98.62 L 176.95,99.18 L 174.48,100.39 L 173.21,101.01 L 170.53,102.31 L 167.82,103.63 L 162.12,106.36 L 159.29,107.72 L 153.82,110.32 L 152.50,110.94 L 150.02,112.11 L 148.81,112.68 L 146.60,113.71 L 145.54,114.20 L 143.70,115.05 L 142.83,115.44 L 141.42,116.07 L 140.78,116.35 L 139.90,116.72 L 139.26,116.94 L 139.20,116.94 L 138.66,116.72 L 138.31,116.57 L 137.23,116.08 L 136.62,115.80 L 135.06,115.08 L 134.23,114.69 L 132.26,113.76 L 131.23,113.28 L 128.91,112.17 L 127.71,111.60 L 125.10,110.35 L 122.43,109.07 L 116.50,106.19 L 113.47,104.72 L 107.77,101.91 L 106.39,101.23 L 103.81,99.94 L 102.56,99.31 L 100.27,98.15 L 99.16,97.59 L 97.22,96.59 L 96.31,96.12 L 94.79,95.32 L 94.09,94.95 L 93.06,94.38 L 92.14,93.83 L 91.57,93.43 L 90.81,92.64 L 90.49,92.19 L 90.13,90.73 L 90.06,90.29 L 89.97,89.16 L 89.93,88.54 L 89.90,86.98 L 89.88,86.14 L 89.89,84.06 L 89.93,80.25 L 90.09,68.34 L 85.79,67.12 L 82.92,66.30 L 77.58,64.72 L 74.98,63.94 L 70.25,62.46 L 67.97,61.73 L 63.91,60.37 L 61.97,59.70 L 58.64,58.48 L 57.07,57.89 L 54.53,56.84 L 53.36,56.34 L 51.67,55.47 L 50.94,55.06 L 50.15,54.41 L 50.06,53.68 L 50.07,53.67 L 50.34,53.57 L 50.50,53.51 L 51.06,53.31 L 51.37,53.20 L 52.20,52.91 L 52.65,52.76 L 53.74,52.38 L 54.90,51.99 L 57.93,50.96 L 59.56,50.41 L 63.44,49.10 L 65.48,48.42 L 70.09,46.88 L 72.47,46.08 L 77.69,44.35 L 80.36,43.46 L 86.05,41.57 L 95.00,38.60 L 139.50,23.89 M 97.33,40.54 L 55.66,54.37 L 68.58,58.50 L 73.92,60.20 L 77.37,61.28 L 78.92,61.76 L 81.86,62.68 L 83.01,63.03 L 84.10,63.36 L 84.54,63.50 L 85.35,63.74 L 85.63,63.82 L 88.87,65.04 L 89.76,65.50 L 90.10,65.72 L 90.70,66.14 L 90.85,66.32 L 91.07,66.82 L 91.22,67.37 L 91.29,67.74 L 91.58,69.49 L 91.70,70.67 L 91.93,73.21 L 92.02,74.68 L 92.18,77.74 L 92.22,79.38 L 92.50,91.14 L 115.00,102.02 L 121.08,104.94 L 123.84,106.25 L 126.53,107.52 L 127.78,108.10 L 130.19,109.22 L 131.26,109.72 L 133.33,110.66 L 134.21,111.06 L 135.85,111.79 L 136.50,112.07 L 137.67,112.57 L 138.06,112.72 L 138.68,112.95 L 138.77,112.95 L 139.49,112.74 L 140.40,112.38 L 141.06,112.11 L 142.49,111.50 L 143.38,111.10 L 145.26,110.27 L 146.34,109.77 L 148.61,108.74 L 149.87,108.16 L 152.45,106.96 L 153.84,106.31 L 159.65,103.57 L 162.77,102.07 L 185.50,91.14 L 185.78,79.07 L 185.88,75.32 L 185.95,73.26 L 185.99,72.41 L 186.08,70.85 L 186.14,70.22 L 186.27,69.07 L 186.35,68.62 L 186.54,67.80 L 186.65,67.49 L 186.90,66.91 L 187.06,66.69 L 187.76,65.95 L 188.28,65.63 L 189.04,65.26 L 189.84,64.93 L 190.37,64.72 L 191.50,64.30 L 192.18,64.05 L 193.60,63.55 L 194.40,63.27 L 197.84,62.10 L 199.81,61.47 L 203.87,60.17 L 206.00,59.52 L 212.04,57.66 L 215.60,56.55 L 217.03,56.10 L 218.39,55.67 L 218.96,55.49 L 220.03,55.14 L 220.44,55.01 L 221.17,54.76 L 221.40,54.68 L 221.75,54.55 L 221.77,54.54 L 221.58,54.44 L 221.24,54.31 L 220.97,54.21 L 220.37,53.99 L 219.97,53.84 L 219.12,53.54 L 218.60,53.36 L 216.28,52.55 L 214.80,52.04 L 211.63,50.95 L 209.76,50.32 L 205.85,48.98 L 203.65,48.24 L 199.09,46.71 L 196.62,45.88 L 191.55,44.18 L 188.86,43.28 L 183.38,41.45 L 180.52,40.50 L 139.01,26.71 Z" fill="rgb(253,253,254)"/>
<path d="M 83.35,253.47 L 83.26,253.23 L 83.42,252.43 L 83.55,251.97 L 84.12,250.79 L 84.45,250.15 L 85.38,248.67 L 87.13,246.22 L 87.73,245.43 L 88.83,243.87 L 89.35,243.11 L 90.21,241.73 L 90.61,241.07 L 91.15,240.01 L 91.48,238.96 L 91.48,238.85 L 91.00,238.12 L 90.68,237.68 L 89.62,236.32 L 89.03,235.58 L 87.45,233.68 L 86.60,232.66 L 84.57,230.29 L 83.51,229.05 L 81.09,226.28 L 79.84,224.85 L 77.10,221.75 L 75.70,220.17 L 72.70,216.83 L 67.98,211.61 L 66.37,209.84 L 63.26,206.41 L 61.73,204.72 L 58.84,201.52 L 57.43,199.95 L 54.82,197.05 L 53.56,195.64 L 51.30,193.11 L 50.22,191.90 L 48.38,189.82 L 47.51,188.84 L 46.15,187.28 L 45.53,186.57 L 44.71,185.60 L 44.16,184.89 L 44.11,184.76 L 44.16,184.40 L 44.23,184.19 L 44.67,183.49 L 44.95,183.08 L 45.98,181.82 L 46.28,181.46 L 47.04,180.59 L 47.44,180.13 L 48.41,179.04 L 48.92,178.47 L 50.14,177.13 L 50.78,176.43 L 52.26,174.81 L 53.04,173.96 L 54.82,172.04 L 55.75,171.04 L 57.85,168.78 L 58.95,167.60 L 61.40,164.98 L 62.67,163.62 L 65.49,160.60 L 66.95,159.04 L 70.17,155.61 L 75.47,149.94 L 76.71,148.63 L 78.97,146.22 L 80.08,145.04 L 82.10,142.90 L 83.08,141.86 L 84.87,139.97 L 85.74,139.05 L 87.33,137.40 L 88.09,136.60 L 89.48,135.17 L 90.15,134.49 L 91.37,133.26 L 92.54,132.09 L 94.43,130.29 L 95.30,129.47 L 96.71,128.28 L 97.36,127.75 L 98.42,127.06 L 98.92,126.76 L 99.77,126.42 L 100.96,126.18 L 104.47,125.85 L 97.96,132.68 L 96.07,134.65 L 92.46,138.45 L 90.68,140.32 L 87.29,143.91 L 85.62,145.67 L 82.45,149.03 L 80.90,150.69 L 77.96,153.83 L 76.51,155.38 L 73.80,158.30 L 72.47,159.73 L 69.98,162.43 L 68.77,163.75 L 66.52,166.22 L 65.42,167.43 L 63.40,169.67 L 62.42,170.76 L 60.64,172.77 L 59.78,173.74 L 58.23,175.52 L 57.49,176.37 L 56.19,177.91 L 55.57,178.65 L 54.51,179.94 L 54.01,180.56 L 53.20,181.61 L 52.82,182.11 L 52.26,182.92 L 52.01,183.29 L 51.69,183.85 L 51.50,184.41 L 51.50,184.61 L 51.96,185.49 L 52.27,185.99 L 53.28,187.42 L 53.84,188.19 L 55.32,190.08 L 56.12,191.08 L 57.99,193.35 L 58.97,194.53 L 61.15,197.10 L 62.28,198.41 L 64.70,201.19 L 67.17,204.00 L 72.48,209.90 L 75.15,212.83 L 80.40,218.46 L 81.68,219.82 L 84.12,222.36 L 85.31,223.60 L 87.52,225.85 L 88.59,226.92 L 90.49,228.78 L 91.40,229.65 L 92.91,231.03 L 93.62,231.66 L 94.67,232.48 L 95.65,232.99 L 95.85,232.99 L 96.68,232.41 L 96.92,232.22 L 97.52,231.66 L 97.85,231.35 L 98.62,230.56 L 99.03,230.14 L 99.98,229.11 L 100.48,228.56 L 101.63,227.27 L 102.23,226.59 L 103.58,225.03 L 104.28,224.22 L 105.84,222.37 L 106.65,221.41 L 108.44,219.26 L 109.37,218.15 L 111.40,215.69 L 112.45,214.42 L 114.73,211.63 L 115.90,210.19 L 118.45,207.06 L 119.75,205.45 L 122.57,201.96 L 124.02,200.17 L 127.13,196.31 L 128.72,194.34 L 132.12,190.09 L 137.58,183.28 L 140.31,179.86 L 145.58,173.25 L 148.17,169.99 L 153.06,163.80 L 155.45,160.77 L 159.86,155.14 L 161.99,152.41 L 165.80,147.50 L 166.71,146.32 L 168.41,144.12 L 169.23,143.05 L 170.74,141.07 L 171.46,140.12 L 172.77,138.39 L 173.40,137.56 L 174.49,136.09 L 175.01,135.39 L 175.87,134.20 L 176.27,133.64 L 176.90,132.75 L 177.18,132.34 L 177.55,131.77 L 177.80,131.28 L 177.92,130.65 L 177.74,129.22 L 177.00,127.49 L 176.73,127.18 L 176.48,126.72 L 176.40,126.52 L 176.59,126.27 L 176.75,126.16 L 177.45,126.05 L 179.17,126.00 L 179.85,126.00 L 181.05,125.80 L 181.63,125.66 L 182.78,125.10 L 183.37,124.76 L 184.67,123.72 L 187.00,121.50 L 187.88,120.61 L 189.43,119.25 L 190.17,118.63 L 191.42,117.82 L 192.01,117.48 L 192.91,117.18 L 193.32,117.09 L 193.84,117.28 L 194.05,117.43 L 194.16,118.08 L 194.15,118.45 L 193.79,119.53 L 193.55,120.12 L 192.70,121.60 L 190.80,124.25 L 189.93,125.36 L 188.50,127.68 L 188.20,128.23 L 187.77,129.19 L 187.46,130.28 L 187.45,130.44 L 187.63,130.95 L 187.75,131.24 L 188.20,132.00 L 188.45,132.41 L 189.15,133.41 L 189.54,133.94 L 190.49,135.16 L 191.00,135.81 L 192.19,137.26 L 192.82,138.01 L 194.26,139.67 L 195.00,140.52 L 196.66,142.39 L 199.41,145.40 L 201.07,147.21 L 204.89,151.36 L 206.84,153.49 L 210.87,157.90 L 212.86,160.08 L 216.63,164.21 L 217.53,165.20 L 219.20,167.04 L 221.44,169.51 L 222.81,171.02 L 225.53,174.02 L 226.86,175.49 L 229.30,178.18 L 230.46,179.45 L 232.34,181.52 L 232.76,181.98 L 233.45,182.74 L 234.22,183.58 L 237.07,186.66 L 226.30,197.98 L 224.82,199.53 L 222.12,202.50 L 220.83,203.93 L 218.69,206.44 L 218.20,207.03 L 217.37,208.06 L 216.98,208.56 L 216.37,209.38 L 216.10,209.77 L 215.74,210.34 L 215.52,210.90 L 215.51,211.34 L 215.17,211.97 L 214.34,212.28 L 214.27,212.27 L 213.85,212.53 L 213.60,212.71 L 212.87,213.33 L 212.47,213.68 L 211.47,214.59 L 210.94,215.08 L 209.73,216.25 L 208.46,217.46 L 205.49,220.44 L 203.96,221.98 L 200.73,225.30 L 199.12,226.97 L 196.02,230.25 L 194.53,231.85 L 191.94,234.69 L 191.35,235.35 L 190.32,236.53 L 189.84,237.09 L 189.07,238.02 L 188.72,238.44 L 188.26,239.08 L 187.97,239.64 L 187.96,239.86 L 187.72,240.35 L 187.58,240.59 L 187.10,241.09 L 186.57,241.59 L 185.04,242.52 L 184.24,242.94 L 182.48,243.54 L 180.09,243.81 L 179.75,243.77 L 179.27,243.62 L 179.08,243.52 L 178.98,243.12 L 178.99,242.88 L 179.41,242.08 L 179.68,241.62 L 180.72,240.29 L 181.02,239.91 L 181.77,239.03 L 182.17,238.57 L 183.11,237.51 L 183.61,236.95 L 184.77,235.68 L 185.37,235.01 L 186.76,233.51 L 187.48,232.74 L 189.11,230.99 L 189.96,230.09 L 191.85,228.09 L 192.83,227.05 L 194.99,224.77 L 198.56,221.00 L 200.03,219.45 L 202.85,216.47 L 204.23,214.99 L 206.85,212.21 L 208.13,210.84 L 210.48,208.32 L 211.62,207.09 L 213.65,204.90 L 214.62,203.84 L 216.26,202.03 L 217.04,201.18 L 218.25,199.83 L 218.79,199.21 L 219.50,198.38 L 219.95,197.77 L 219.96,197.67 L 220.32,197.16 L 220.56,196.86 L 221.31,196.04 L 221.72,195.59 L 222.75,194.56 L 224.50,192.89 L 225.74,191.75 L 227.68,189.38 L 228.09,188.83 L 228.64,187.86 L 229.00,186.77 L 229.00,186.50 L 228.66,185.63 L 228.45,185.16 L 227.75,183.99 L 224.75,180.09 L 222.63,177.74 L 218.72,173.41 L 216.81,171.30 L 213.31,167.43 L 211.60,165.55 L 208.48,162.11 L 206.96,160.44 L 204.20,157.41 L 202.86,155.94 L 200.44,153.29 L 199.27,152.01 L 197.16,149.73 L 196.14,148.63 L 194.32,146.68 L 193.45,145.74 L 191.90,144.10 L 191.16,143.32 L 189.86,141.97 L 189.24,141.33 L 188.16,140.24 L 187.65,139.73 L 186.77,138.89 L 186.36,138.49 L 185.66,137.86 L 185.00,137.28 L 184.12,136.66 L 183.27,136.36 L 182.79,136.40 L 181.48,137.05 L 179.66,138.50 L 179.43,138.74 L 178.80,139.47 L 178.45,139.87 L 177.58,140.90 L 177.12,141.44 L 176.04,142.75 L 175.47,143.43 L 174.19,144.99 L 173.53,145.80 L 172.06,147.60 L 171.31,148.52 L 169.68,150.54 L 168.02,152.60 L 164.26,157.27 L 162.32,159.69 L 158.11,164.95 L 155.97,167.63 L 151.46,173.31 L 146.89,179.05 L 137.39,191.07 L 135.03,194.06 L 130.38,199.97 L 128.08,202.89 L 123.66,208.53 L 121.49,211.30 L 117.42,216.52 L 115.44,219.05 L 111.86,223.66 L 111.01,224.77 L 109.41,226.84 L 108.63,227.85 L 107.19,229.72 L 106.50,230.62 L 105.25,232.26 L 104.65,233.04 L 103.61,234.43 L 103.11,235.09 L 102.29,236.20 L 101.90,236.72 L 101.31,237.54 L 101.04,237.92 L 100.70,238.42 L 100.50,238.81 L 100.49,239.27 L 100.89,240.52 L 101.89,242.25 L 102.22,242.65 L 102.56,243.20 L 102.66,243.44 L 102.47,243.73 L 102.29,243.85 L 101.44,243.95 L 99.28,244.00 L 98.36,244.00 L 96.97,244.16 L 96.31,244.29 L 95.14,244.88 L 94.54,245.26 L 93.19,246.54 L 92.82,246.91 L 91.99,247.83 L 90.54,249.50 L 89.93,250.22 L 88.86,251.43 L 88.35,252.00 L 87.47,252.91 L 87.06,253.33 L 86.35,253.96 L 86.02,254.24 L 85.46,254.59 L 85.19,254.74 L 84.75,254.84 L 84.54,254.86 L 84.19,254.72 L 83.85,254.52 M 115.00,102.02 L 92.50,91.14 L 92.22,79.38 L 92.18,77.74 L 92.02,74.68 L 91.93,73.21 L 91.70,70.67 L 91.58,69.49 L 91.29,67.74 L 91.22,67.37 L 91.07,66.82 L 90.85,66.32 L 90.70,66.14 L 90.10,65.72 L 89.76,65.50 L 88.87,65.04 L 85.63,63.82 L 85.35,63.74 L 84.54,63.50 L 84.10,63.36 L 83.01,63.03 L 81.86,62.68 L 78.92,61.76 L 77.37,61.28 L 73.92,60.20 L 68.58,58.50 L 55.66,54.37 L 97.33,40.54 L 139.01,26.71 L 180.52,40.50 L 183.38,41.45 L 188.86,43.28 L 191.55,44.18 L 196.62,45.88 L 199.09,46.71 L 203.65,48.24 L 205.85,48.98 L 209.76,50.32 L 211.63,50.95 L 214.80,52.04 L 216.28,52.55 L 218.60,53.36 L 219.12,53.54 L 219.97,53.84 L 220.37,53.99 L 220.97,54.21 L 221.24,54.31 L 221.58,54.44 L 221.77,54.54 L 221.75,54.55 L 221.40,54.68 L 221.17,54.76 L 220.44,55.01 L 220.03,55.14 L 218.96,55.49 L 218.39,55.67 L 217.03,56.10 L 215.60,56.55 L 212.04,57.66 L 206.00,59.52 L 203.87,60.17 L 199.81,61.47 L 197.84,62.10 L 194.40,63.27 L 193.60,63.55 L 192.18,64.05 L 191.50,64.30 L 190.37,64.72 L 189.84,64.93 L 189.04,65.26 L 188.28,65.63 L 187.76,65.95 L 187.06,66.69 L 186.90,66.91 L 186.65,67.49 L 186.54,67.80 L 186.35,68.62 L 186.27,69.07 L 186.14,70.22 L 186.08,70.85 L 185.99,72.41 L 185.95,73.26 L 185.88,75.32 L 185.78,79.07 L 185.50,91.14 L 162.77,102.07 L 159.65,103.57 L 153.84,106.31 L 152.45,106.96 L 149.87,108.16 L 148.61,108.74 L 146.34,109.77 L 145.26,110.27 L 143.38,111.10 L 142.49,111.50 L 141.06,112.11 L 140.40,112.38 L 139.49,112.74 L 138.77,112.95 L 138.68,112.95 L 138.06,112.72 L 137.67,112.57 L 136.50,112.07 L 135.85,111.79 L 134.21,111.06 L 133.33,110.66 L 131.26,109.72 L 130.19,109.22 L 127.78,108.10 L 126.53,107.52 L 123.84,106.25 L 121.08,104.94 Z" fill="rgb(255,255,255)"/>
</g>
</svg>