<svg xmlns="http://www.w3.org/2000/svg" width="308" height="332" viewBox="0 0 308 332">
<g>
<path d="M 210.89,141.84 L 211.72,141.95 L 212.09,142.11 L 212.82,142.50 L 213.13,142.80 L 213.72,143.48 L 213.96,143.93 L 214.54,145.77 L 214.48,147.05 L 214.20,147.80 L 213.46,149.37 L 212.82,150.35 L 212.12,151.36 L 211.70,151.93 L 210.80,153.10 L 210.27,153.76 L 209.16,155.16 L 208.57,155.92 L 208.34,156.24 L 207.63,157.36 L 207.53,157.77 L 207.49,158.55 L 207.69,158.95 L 208.22,159.79 L 208.67,160.38 L 209.52,161.38 L 210.54,162.53 L 211.25,163.33 L 212.79,165.07 L 213.74,166.12 L 215.75,168.36 L 216.90,169.64 L 219.30,172.30 L 220.63,173.76 L 223.35,176.76 L 224.81,178.37 L 227.79,181.64 L 229.34,183.35 L 232.50,186.82 L 234.13,188.60 L 257.76,214.47 L 252.13,220.64 L 250.54,222.37 L 249.07,223.95 L 248.17,224.93 L 246.24,227.01 L 245.13,228.21 L 242.82,230.70 L 241.54,232.07 L 238.92,234.89 L 237.52,236.39 L 234.67,239.46 L 233.18,241.06 L 227.09,247.59 L 224.00,250.90 L 201.50,275.00 L 195.25,275.00 L 192.82,274.95 L 191.40,274.87 L 190.84,274.81 L 189.81,274.69 L 189.49,274.61 L 189.00,274.46 L 189.00,274.37 L 189.29,273.93 L 189.77,273.35 L 190.13,272.93 L 190.94,272.00 L 191.46,271.43 L 192.56,270.20 L 193.21,269.48 L 194.57,267.99 L 195.33,267.17 L 196.91,265.46 L 197.77,264.54 L 201.36,260.70 L 203.33,258.62 L 208.34,253.33 L 211.51,249.98 L 213.01,248.38 L 215.96,245.25 L 217.35,243.77 L 220.08,240.87 L 221.35,239.50 L 223.86,236.82 L 225.03,235.57 L 227.31,233.11 L 228.37,231.97 L 230.43,229.74 L 231.38,228.70 L 233.22,226.69 L 234.06,225.77 L 235.68,223.98 L 236.41,223.17 L 237.82,221.60 L 238.44,220.90 L 239.63,219.55 L 240.14,218.96 L 241.12,217.83 L 241.52,217.34 L 242.28,216.43 L 242.58,216.05 L 243.13,215.36 L 243.32,215.09 L 243.65,214.61 L 243.73,214.45 L 243.85,214.18 L 243.83,214.13 L 243.23,213.29 L 242.40,212.27 L 241.80,211.56 L 240.47,210.01 L 239.65,209.07 L 237.90,207.09 L 236.89,205.96 L 234.80,203.63 L 233.66,202.36 L 231.31,199.76 L 230.07,198.39 L 224.93,192.74 L 222.27,189.86 L 216.97,184.11 L 214.47,181.43 L 212.01,178.79 L 210.86,177.57 L 208.62,175.19 L 207.61,174.12 L 205.67,172.08 L 204.83,171.22 L 203.27,169.60 L 202.65,168.98 L 201.54,167.88 L 201.18,167.55 L 200.60,167.05 L 200.54,167.05 L 199.93,167.57 L 199.16,168.39 L 198.60,169.02 L 197.38,170.41 L 196.62,171.30 L 195.01,173.20 L 194.08,174.31 L 192.14,176.65 L 191.06,177.96 L 188.85,180.67 L 187.65,182.14 L 185.22,185.15 L 183.94,186.75 L 181.34,190.00 L 180.00,191.69 L 172.22,201.48 L 169.80,204.52 L 168.67,205.94 L 166.47,208.71 L 165.47,209.97 L 163.54,212.38 L 162.70,213.44 L 161.10,215.43 L 160.45,216.24 L 159.25,217.73 L 158.83,218.26 L 158.08,219.17 L 157.91,219.39 L 157.05,220.43 L 156.18,221.51 L 155.61,222.21 L 154.39,223.73 L 153.66,224.64 L 152.14,226.54 L 151.28,227.61 L 149.51,229.82 L 148.55,231.03 L 146.58,233.49 L 145.54,234.79 L 141.24,240.18 L 138.99,243.00 L 132.54,251.10 L 130.55,253.59 L 129.63,254.75 L 127.83,256.99 L 127.02,258.00 L 125.47,259.94 L 124.80,260.77 L 123.54,262.34 L 123.04,262.97 L 122.11,264.11 L 121.80,264.50 L 121.26,265.15 L 121.16,265.28 L 120.45,266.35 L 120.33,267.01 L 120.49,267.40 L 120.97,268.24 L 121.46,268.82 L 122.64,270.12 L 123.52,271.03 L 127.41,275.00 L 113.17,275.00 L 109.91,279.25 L 107.16,282.62 L 106.33,283.56 L 105.98,283.93 L 105.34,284.58 L 105.14,284.75 L 104.01,285.48 L 103.37,285.68 L 102.03,285.97 L 101.37,285.95 L 100.05,285.79 L 99.47,285.55 L 98.39,284.97 L 98.01,284.51 L 97.23,282.59 L 97.32,281.02 L 97.68,280.06 L 98.62,278.03 L 99.42,276.80 L 100.28,275.54 L 100.79,274.85 L 101.87,273.43 L 102.50,272.66 L 107.02,267.11 L 82.44,240.12 L 77.50,234.68 L 74.37,231.21 L 72.90,229.58 L 70.03,226.40 L 68.72,224.94 L 66.19,222.11 L 65.08,220.86 L 62.95,218.47 L 62.07,217.46 L 60.42,215.58 L 59.79,214.86 L 58.68,213.56 L 58.35,213.15 L 57.84,212.52 L 57.84,212.47 L 58.15,212.02 L 58.66,211.39 L 59.06,210.93 L 59.95,209.90 L 60.52,209.26 L 61.74,207.89 L 62.46,207.08 L 63.98,205.39 L 64.84,204.44 L 66.63,202.47 L 67.61,201.40 L 69.63,199.19 L 70.71,198.01 L 72.92,195.61 L 74.08,194.35 L 78.89,189.14 L 81.45,186.39 L 86.64,180.82 L 89.28,178.00 L 94.56,172.36 L 97.14,169.63 L 102.23,164.24 L 104.61,161.75 L 114.86,151.00 L 128.23,151.00 L 119.42,160.25 L 102.87,177.74 L 97.41,183.55 L 94.80,186.33 L 89.70,191.79 L 87.36,194.30 L 85.07,196.77 L 83.99,197.93 L 81.88,200.20 L 80.91,201.25 L 79.03,203.29 L 78.17,204.22 L 76.54,206.00 L 75.82,206.78 L 74.46,208.27 L 73.90,208.90 L 72.85,210.06 L 72.45,210.51 L 71.75,211.32 L 71.53,211.58 L 71.20,212.00 L 71.18,212.05 L 71.57,212.73 L 72.28,213.66 L 72.82,214.33 L 74.03,215.79 L 74.79,216.70 L 76.43,218.62 L 77.38,219.72 L 79.36,222.01 L 80.46,223.26 L 82.71,225.82 L 83.91,227.18 L 88.88,232.77 L 91.46,235.64 L 96.64,241.38 L 99.09,244.06 L 101.50,246.70 L 102.63,247.92 L 104.84,250.31 L 105.84,251.38 L 107.77,253.43 L 108.60,254.30 L 110.16,255.92 L 110.78,256.54 L 111.90,257.66 L 112.26,257.99 L 112.86,258.50 L 112.94,258.50 L 113.23,258.24 L 113.62,257.81 L 113.91,257.48 L 114.56,256.73 L 114.98,256.24 L 115.87,255.19 L 116.40,254.55 L 117.52,253.21 L 118.16,252.44 L 119.49,250.83 L 120.23,249.93 L 121.76,248.07 L 122.60,247.05 L 124.32,244.95 L 125.24,243.81 L 129.11,239.07 L 131.27,236.41 L 135.72,230.90 L 138.14,227.91 L 143.07,221.79 L 145.68,218.54 L 150.99,211.94 L 153.74,208.50 L 193.77,158.50 L 190.88,155.45 L 188.85,153.09 L 188.37,152.45 L 188.23,152.22 L 188.00,151.80 L 188.00,151.70 L 188.46,151.43 L 189.19,151.27 L 189.73,151.21 L 190.89,151.09 L 191.60,151.06 L 193.07,151.00 L 193.88,151.00 L 195.79,150.99 L 196.85,150.96 L 197.29,150.92 L 198.86,150.69 L 199.47,150.40 L 200.62,149.69 L 201.24,149.06 L 201.87,148.38 L 202.24,147.96 L 203.00,147.05 L 203.45,146.50 L 206.57,143.46 L 207.59,142.77 L 208.09,142.52 L 209.07,142.09 L 209.54,141.98 L 210.46,141.82 M 156.95,52.09 L 157.49,52.24 L 157.88,52.35 L 158.75,52.60 L 159.29,52.76 L 160.44,53.11 L 161.12,53.32 L 164.10,54.26 L 165.95,54.84 L 169.85,56.09 L 172.09,56.81 L 176.74,58.31 L 179.28,59.14 L 184.49,60.84 L 187.24,61.74 L 198.60,65.47 L 204.41,67.40 L 210.22,69.33 L 213.07,70.28 L 218.72,72.16 L 221.43,73.07 L 226.73,74.85 L 229.20,75.68 L 233.98,77.29 L 236.11,78.02 L 240.19,79.41 L 241.91,80.01 L 243.56,80.58 L 244.30,80.84 L 245.70,81.33 L 246.31,81.55 L 247.44,81.95 L 247.90,82.12 L 248.74,82.43 L 249.04,82.55 L 249.56,82.76 L 249.69,82.82 L 249.88,82.92 L 249.83,82.92 L 249.08,83.10 L 248.20,83.34 L 247.59,83.51 L 246.27,83.90 L 245.47,84.14 L 243.78,84.65 L 242.82,84.95 L 238.70,86.22 L 236.36,86.95 L 231.54,88.47 L 229.06,89.26 L 224.10,90.85 L 221.76,91.61 L 217.22,93.09 L 215.30,93.72 L 213.45,94.34 L 212.64,94.61 L 211.12,95.12 L 210.51,95.34 L 209.40,95.73 L 209.01,95.87 L 208.37,96.12 L 208.25,96.18 L 207.00,97.09 L 206.71,97.52 L 206.60,97.80 L 206.40,98.44 L 206.32,98.86 L 206.19,99.79 L 206.15,100.39 L 206.07,101.70 L 206.05,102.53 L 206.02,104.31 L 206.01,105.40 L 206.00,107.73 L 206.00,109.13 L 205.99,112.86 L 205.97,114.90 L 205.95,115.73 L 205.90,117.26 L 205.85,117.87 L 205.75,118.98 L 205.68,119.41 L 205.51,120.19 L 205.40,120.48 L 205.16,121.01 L 205.00,121.21 L 204.28,121.87 L 203.75,122.17 L 202.84,122.64 L 201.82,123.15 L 201.12,123.50 L 199.61,124.26 L 198.69,124.71 L 196.74,125.67 L 195.63,126.22 L 193.33,127.35 L 192.07,127.97 L 189.47,129.24 L 188.09,129.91 L 182.34,132.72 L 179.28,134.20 L 173.29,137.10 L 170.59,138.39 L 167.96,139.65 L 166.75,140.22 L 164.40,141.32 L 163.36,141.81 L 161.37,142.73 L 160.52,143.12 L 158.95,143.84 L 158.34,144.11 L 157.24,144.59 L 156.89,144.73 L 156.33,144.94 L 156.28,144.93 L 155.63,144.68 L 154.73,144.29 L 154.06,143.99 L 152.60,143.32 L 151.69,142.89 L 149.74,141.99 L 148.61,141.46 L 146.24,140.34 L 144.92,139.72 L 142.20,138.43 L 140.73,137.73 L 134.58,134.79 L 131.25,133.19 L 107.00,121.51 L 107.00,96.26 L 102.25,94.99 L 101.02,94.64 L 99.97,94.33 L 99.34,94.15 L 96.58,93.31 L 94.93,92.80 L 91.47,91.72 L 89.62,91.13 L 85.86,89.93 L 84.00,89.33 L 78.44,87.54 L 74.88,86.41 L 73.29,85.91 L 70.28,84.97 L 69.12,84.61 L 68.02,84.28 L 67.58,84.15 L 66.77,83.91 L 66.50,83.84 L 65.31,83.44 L 64.91,83.14 L 65.02,82.93 L 65.18,82.72 L 65.35,82.59 L 65.77,82.31 L 66.09,82.14 L 66.80,81.79 L 67.29,81.58 L 68.34,81.14 L 69.00,80.88 L 70.43,80.33 L 71.30,80.01 L 73.14,79.34 L 74.23,78.95 L 76.52,78.14 L 77.86,77.68 L 80.65,76.72 L 82.24,76.18 L 85.56,75.05 L 87.44,74.42 L 91.33,73.11 L 93.50,72.38 L 98.01,70.87 L 100.51,70.04 L 105.66,68.32 L 108.50,67.37 L 117.78,64.28 L 123.72,62.32 L 126.52,61.40 L 132.00,59.61 L 134.52,58.79 L 139.40,57.22 L 141.58,56.52 L 145.74,55.19 L 147.50,54.64 L 150.81,53.61 L 152.10,53.22 L 153.32,52.85 L 153.84,52.70 L 154.79,52.42 L 155.17,52.32 L 155.84,52.14 L 156.06,52.08 L 156.44,52.00 L 156.51,52.00 Z" fill="rgb(24,21,22)"/>
<path d="M 308.00,332.00 L 0.00,332.00 L 0.00,0.00 L 308.00,0.00 M 188.37,152.45 L 188.85,153.09 L 190.88,155.45 L 193.77,158.50 L 153.74,208.50 L 150.99,211.94 L 150.30,212.79 L 150.94,211.98 L 151.55,211.21 L 152.71,209.72 L 153.23,209.06 L 155.11,206.60 L 155.82,205.64 L 157.07,203.91 L 157.49,203.26 L 158.19,202.11 L 158.37,201.71 L 158.61,201.02 L 158.58,200.81 L 158.44,200.46 L 158.25,200.36 L 157.80,200.22 L 157.49,200.18 L 155.18,200.27 L 153.92,200.74 L 153.45,201.16 L 152.62,202.13 L 152.37,202.79 L 152.00,204.22 L 152.00,205.10 L 151.92,206.62 L 151.74,207.25 L 151.55,207.41 L 151.09,207.62 L 150.71,207.61 L 149.83,207.52 L 149.19,207.39 L 146.92,207.40 L 145.66,207.87 L 145.20,208.30 L 144.42,209.26 L 144.25,209.88 L 144.08,211.21 L 144.28,211.96 L 144.23,213.69 L 143.78,214.77 L 143.40,215.09 L 142.41,215.75 L 142.00,215.86 L 142.00,215.71 L 141.79,215.56 L 141.47,215.52 L 141.23,215.54 L 140.09,215.68 L 139.37,215.88 L 138.12,216.39 L 137.40,216.90 L 137.10,217.23 L 136.52,217.97 L 136.28,218.43 L 135.81,219.43 L 135.62,220.03 L 134.26,222.65 L 133.71,223.25 L 133.41,223.45 L 132.81,223.78 L 132.50,223.83 L 130.64,224.38 L 129.78,224.97 L 129.48,225.46 L 128.96,226.58 L 128.78,227.42 L 128.46,229.32 L 128.32,230.64 L 128.12,232.57 L 128.02,233.60 L 127.98,234.02 L 127.85,235.40 L 127.82,235.82 L 127.81,236.98 L 127.88,237.75 L 128.03,238.40 L 128.19,238.62 L 128.54,238.98 L 128.75,238.97 L 129.21,238.57 L 129.82,237.93 L 130.25,237.44 L 131.20,236.35 L 131.79,235.66 L 133.05,234.17 L 133.77,233.30 L 133.97,233.06 L 131.27,236.41 L 129.11,239.07 L 126.34,242.47 L 126.67,241.96 L 126.81,241.66 L 127.03,241.13 L 127.04,240.95 L 126.98,240.63 L 126.86,240.53 L 126.15,240.26 L 125.50,240.18 L 123.28,240.25 L 122.05,240.67 L 121.57,241.05 L 120.70,241.95 L 120.40,242.57 L 119.91,243.92 L 119.81,244.77 L 119.49,246.22 L 119.09,246.85 L 118.68,247.05 L 117.73,247.39 L 116.94,247.50 L 116.10,247.60 L 115.58,247.64 L 114.48,247.73 L 113.83,247.77 L 109.46,247.77 L 107.21,247.42 L 106.40,247.07 L 104.99,246.26 L 104.59,245.67 L 104.00,244.37 L 104.00,243.53 L 103.51,241.96 L 102.76,241.01 L 102.25,240.64 L 101.18,239.98 L 100.60,239.82 L 99.43,239.62 L 98.88,239.76 L 98.52,239.50 L 98.19,239.05 L 97.99,238.70 L 97.14,237.04 L 96.71,235.96 L 95.31,233.51 L 94.19,232.38 L 93.60,232.10 L 92.43,231.74 L 91.89,231.88 L 90.88,232.39 L 90.50,233.00 L 90.61,233.45 L 90.90,234.00 L 91.15,234.37 L 91.72,235.19 L 92.09,235.70 L 92.90,236.76 L 93.39,237.37 L 95.53,240.01 L 96.85,241.56 L 97.79,242.64 L 96.64,241.38 L 91.46,235.64 L 88.88,232.77 L 83.91,227.18 L 83.18,226.35 L 83.83,227.01 L 84.28,227.43 L 85.14,228.23 L 85.51,228.55 L 86.83,229.62 L 87.26,229.83 L 87.97,230.04 L 88.10,229.84 L 88.36,228.38 L 88.07,227.17 L 87.70,226.48 L 86.82,225.03 L 86.17,224.23 L 84.73,222.61 L 83.81,221.75 L 81.95,219.81 L 81.61,219.36 L 81.55,219.22 L 81.49,219.00 L 81.59,219.00 L 81.67,218.49 L 81.26,217.73 L 80.86,217.25 L 80.11,215.80 L 79.79,214.57 L 79.72,213.88 L 79.66,210.95 L 79.90,209.56 L 80.18,208.21 L 80.38,207.62 L 80.81,206.53 L 81.07,206.14 L 81.62,205.46 L 81.92,205.34 L 82.57,205.23 L 82.91,205.45 L 83.70,205.57 L 84.30,205.34 L 84.62,205.08 L 85.27,204.48 L 85.61,204.05 L 86.28,203.10 L 86.61,202.50 L 87.36,201.33 L 87.87,200.83 L 88.23,200.67 L 89.03,200.40 L 89.63,200.32 L 90.99,200.19 L 91.96,200.12 L 93.61,199.51 L 94.55,198.63 L 94.93,197.98 L 95.63,196.54 L 95.86,195.64 L 96.26,193.73 L 96.33,192.63 L 96.63,190.93 L 97.03,189.87 L 97.34,189.34 L 98.05,188.30 L 98.53,187.76 L 99.59,186.66 L 100.27,186.07 L 102.90,183.22 L 103.52,182.32 L 103.71,181.94 L 104.00,181.23 L 104.00,180.98 L 104.22,178.79 L 104.60,177.65 L 104.90,177.24 L 105.58,176.51 L 106.03,176.31 L 107.02,176.00 L 107.63,176.00 L 108.79,175.84 L 109.45,175.58 L 109.73,175.35 L 110.27,174.85 L 110.50,174.50 L 110.94,173.74 L 111.13,173.25 L 111.84,171.49 L 112.26,170.52 L 112.45,170.13 L 113.16,168.81 L 113.52,168.44 L 114.25,167.87 L 114.70,167.79 L 115.69,167.74 L 116.36,167.82 L 117.71,167.86 L 118.40,167.70 L 118.68,167.52 L 119.19,167.06 L 119.41,166.70 L 119.83,165.89 L 120.05,165.32 L 120.73,163.99 L 121.41,162.97 L 121.83,162.44 L 123.67,160.31 L 124.65,159.48 L 126.28,157.95 L 127.06,157.03 L 127.32,156.60 L 127.74,155.76 L 127.82,155.34 L 127.91,154.51 L 127.85,154.08 L 127.57,153.58 L 127.19,153.54 L 126.86,153.71 L 126.11,154.16 L 125.56,154.60 L 124.35,155.64 L 123.53,156.41 L 121.75,158.12 L 120.61,159.27 L 119.43,160.46 L 118.77,161.14 L 117.40,162.54 L 116.65,163.32 L 115.09,164.94 L 114.23,165.84 L 112.46,167.70 L 111.50,168.72 L 109.51,170.82 L 108.43,171.96 L 106.20,174.32 L 105.00,175.59 L 95.81,185.35 L 92.86,188.48 L 91.46,189.97 L 88.70,192.90 L 87.42,194.26 L 85.74,196.05 L 87.36,194.30 L 89.70,191.79 L 94.80,186.33 L 97.41,183.55 L 102.87,177.74 L 119.42,160.25 L 128.23,151.00 L 121.43,151.00 L 123.52,150.99 L 124.66,150.97 L 125.11,150.95 L 126.65,150.82 L 127.08,150.66 L 127.74,150.27 L 127.86,149.93 L 128.00,149.14 L 128.00,148.56 L 127.65,146.51 L 126.98,145.57 L 126.34,145.27 L 125.64,144.99 L 125.19,144.89 L 124.24,144.70 L 123.65,144.64 L 122.41,144.53 L 121.67,144.50 L 120.10,144.45 L 119.19,144.44 L 117.12,144.43 L 116.00,144.44 L 115.55,144.46 L 114.04,144.59 L 113.60,144.78 L 112.90,145.26 L 112.71,145.68 L 112.39,146.68 L 112.23,147.44 L 111.82,149.79 L 111.75,150.43 L 111.74,150.66 L 111.73,151.07 L 111.76,151.16 L 111.62,151.39 L 111.34,151.51 L 111.13,151.54 L 110.06,151.61 L 109.35,151.53 L 107.48,151.79 L 106.19,152.36 L 105.60,152.77 L 104.51,153.68 L 104.12,154.19 L 103.48,155.26 L 103.41,155.78 L 102.99,157.39 L 102.50,158.35 L 102.19,158.73 L 101.53,159.44 L 101.16,159.66 L 100.40,160.00 L 100.02,160.00 L 98.41,160.37 L 97.50,160.98 L 97.13,161.44 L 96.46,162.47 L 96.23,163.13 L 95.85,164.53 L 95.78,165.35 L 95.57,166.61 L 95.32,167.22 L 95.13,167.42 L 94.71,167.77 L 94.42,167.87 L 93.78,168.00 L 93.36,168.00 L 91.01,168.19 L 89.84,168.50 L 89.46,168.75 L 88.83,169.33 L 88.70,169.71 L 88.59,170.55 L 88.73,171.07 L 88.76,172.83 L 88.43,173.98 L 88.13,174.35 L 87.52,175.47 L 87.45,176.12 L 87.62,176.28 L 87.60,176.48 L 87.35,176.57 L 87.12,176.59 L 85.95,176.60 L 85.09,176.49 L 83.38,176.39 L 82.54,176.55 L 82.20,176.78 L 81.56,177.35 L 81.25,177.84 L 80.61,178.97 L 80.22,179.80 L 78.41,182.55 L 77.76,183.14 L 77.44,183.33 L 76.80,183.62 L 76.49,183.64 L 74.68,183.78 L 73.51,183.86 L 73.14,183.89 L 72.56,184.12 L 72.29,184.45 L 72.21,184.70 L 72.10,185.27 L 72.10,185.64 L 72.13,186.46 L 72.21,186.96 L 72.16,188.89 L 71.79,189.93 L 71.47,190.31 L 70.73,190.96 L 70.25,191.10 L 69.21,191.25 L 68.61,191.11 L 67.92,191.18 L 67.38,191.42 L 67.09,191.61 L 65.89,192.57 L 65.34,193.19 L 64.31,194.51 L 64.01,195.13 L 63.75,195.74 L 63.69,196.01 L 63.64,196.52 L 63.72,196.71 L 63.75,197.96 L 63.32,198.70 L 62.92,199.00 L 62.00,199.54 L 61.39,199.71 L 60.08,199.98 L 59.31,199.98 L 57.57,200.30 L 56.65,200.76 L 56.47,201.04 L 56.27,201.83 L 56.16,202.73 L 56.11,203.35 L 56.03,204.67 L 56.01,205.45 L 55.96,207.09 L 55.95,207.99 L 55.93,211.80 L 55.98,213.78 L 56.11,217.74 L 56.24,219.50 L 56.73,221.67 L 57.34,222.91 L 57.74,223.37 L 58.60,224.17 L 59.07,224.35 L 60.02,224.54 L 60.49,224.36 L 61.37,224.31 L 62.02,224.50 L 62.35,224.70 L 63.69,225.71 L 64.29,226.45 L 65.40,228.05 L 65.73,228.90 L 66.22,230.60 L 66.09,231.32 L 66.23,231.76 L 66.53,231.79 L 66.75,231.65 L 67.43,231.51 L 67.97,231.62 L 68.26,231.76 L 69.49,232.53 L 70.08,233.12 L 71.21,234.42 L 71.61,235.13 L 72.25,236.56 L 72.25,237.18 L 72.58,238.97 L 73.07,239.75 L 73.38,239.77 L 76.40,240.30 L 77.92,240.84 L 78.46,241.22 L 79.38,242.06 L 79.63,242.60 L 80.00,243.78 L 80.00,244.51 L 80.48,246.47 L 81.19,247.57 L 81.64,247.82 L 82.61,248.21 L 83.17,248.28 L 84.34,248.34 L 84.92,248.26 L 86.04,248.02 L 86.50,247.80 L 87.31,247.30 L 87.52,246.97 L 87.31,246.47 L 86.86,245.81 L 86.50,245.34 L 85.70,244.31 L 85.18,243.66 L 84.05,242.29 L 83.38,241.50 L 81.98,239.84 L 81.18,238.93 L 79.54,237.03 L 78.64,236.01 L 74.85,231.76 L 72.75,229.46 L 66.86,222.92 L 65.09,220.93 L 64.29,220.02 L 62.75,218.25 L 62.07,217.47 L 62.03,217.42 L 62.07,217.46 L 62.95,218.47 L 65.08,220.86 L 66.19,222.11 L 68.72,224.94 L 70.03,226.40 L 72.90,229.58 L 74.37,231.21 L 77.50,234.68 L 82.44,240.12 L 92.17,250.80 L 91.05,249.67 L 90.35,249.04 L 89.68,248.47 L 89.43,248.28 L 89.00,248.00 L 88.90,248.00 L 88.49,248.28 L 88.29,248.71 L 88.22,249.01 L 88.01,250.47 L 88.02,251.34 L 88.13,253.13 L 88.30,253.90 L 88.48,254.64 L 88.61,254.93 L 88.87,255.47 L 89.02,255.62 L 89.33,255.83 L 89.58,255.91 L 90.14,256.05 L 90.49,256.10 L 92.03,256.23 L 92.85,256.21 L 94.45,256.10 L 95.04,255.97 L 95.57,255.82 L 95.74,255.73 L 96.00,255.54 L 96.00,255.42 L 95.73,254.86 L 95.31,254.27 L 95.11,254.03 L 103.10,262.81 L 102.07,261.74 L 99.56,259.25 L 98.32,258.16 L 97.87,257.87 L 97.06,257.45 L 96.78,257.46 L 96.28,257.63 L 96.10,257.91 L 95.62,259.66 L 95.60,261.19 L 95.75,261.91 L 96.16,264.61 L 96.30,266.56 L 96.29,267.55 L 96.09,271.55 L 95.71,273.31 L 95.45,275.73 L 95.52,277.20 L 95.68,277.60 L 96.08,278.50 L 96.34,278.64 L 96.62,278.74 L 96.80,278.70 L 97.17,278.55 L 97.40,278.39 L 97.91,277.98 L 98.22,277.67 L 98.89,276.98 L 99.30,276.52 L 100.17,275.52 L 100.69,274.89 L 101.60,273.79 L 100.79,274.85 L 100.28,275.54 L 99.42,276.80 L 98.62,278.03 L 97.68,280.06 L 97.32,281.02 L 97.23,282.59 L 97.93,284.30 L 97.56,283.78 L 96.00,281.55 L 96.00,284.11 L 96.19,286.11 L 96.48,287.14 L 96.66,287.32 L 97.03,287.49 L 97.47,287.56 L 98.50,287.68 L 99.20,287.72 L 100.72,287.78 L 101.60,287.78 L 103.43,287.77 L 104.41,287.74 L 106.65,287.65 L 107.87,287.59 L 108.36,287.55 L 109.28,287.46 L 109.63,287.40 L 110.28,287.26 L 110.53,287.17 L 111.30,286.75 L 111.49,286.40 L 111.76,285.59 L 111.83,285.00 L 112.39,282.74 L 113.04,281.72 L 113.60,281.40 L 114.89,280.86 L 115.87,280.72 L 116.92,280.59 L 117.55,280.55 L 118.87,280.48 L 119.65,280.45 L 122.03,280.31 L 123.37,280.13 L 123.93,279.98 L 124.97,279.64 L 125.39,279.40 L 126.17,278.87 L 126.47,278.51 L 127.02,277.74 L 127.23,277.25 L 127.59,276.19 L 127.72,275.55 L 127.93,274.16 L 127.99,273.34 L 128.08,271.59 L 128.10,270.56 L 128.20,266.57 L 128.29,264.12 L 128.36,263.00 L 128.49,260.84 L 128.57,259.88 L 128.74,258.04 L 128.84,257.25 L 129.14,256.76 L 129.54,256.48 L 129.82,256.37 L 131.14,256.00 L 131.95,256.00 L 134.23,255.56 L 135.39,254.88 L 135.75,254.40 L 136.33,253.34 L 136.36,252.73 L 136.24,251.45 L 135.88,250.78 L 135.29,249.48 L 135.14,248.91 L 135.21,248.87 L 135.97,248.69 L 136.89,248.53 L 137.49,248.43 L 140.17,248.02 L 141.50,247.86 L 143.03,247.08 L 143.60,246.04 L 143.65,245.28 L 144.11,243.10 L 144.72,241.90 L 145.15,241.44 L 146.10,240.62 L 146.68,240.37 L 147.92,240.00 L 148.62,240.00 L 150.03,239.87 L 150.64,239.58 L 150.82,239.25 L 151.13,238.44 L 151.21,237.75 L 151.34,236.17 L 151.39,235.00 L 151.57,233.84 L 151.81,233.23 L 152.00,233.00 L 152.42,232.60 L 152.71,232.47 L 153.35,232.24 L 153.75,232.18 L 155.34,231.66 L 156.00,231.14 L 156.00,230.87 L 156.27,230.34 L 156.67,230.30 L 156.93,230.46 L 157.80,230.20 L 158.39,229.39 L 158.60,228.76 L 159.25,225.85 L 159.51,223.66 L 159.55,222.65 L 159.57,220.72 L 159.47,220.06 L 159.36,219.47 L 159.28,219.28 L 159.10,219.00 L 158.98,219.00 L 158.45,219.45 L 157.76,220.19 L 157.26,220.76 L 156.17,222.01 L 155.48,222.81 L 154.03,224.53 L 153.19,225.54 L 151.44,227.65 L 150.46,228.83 L 148.46,231.28 L 147.38,232.61 L 145.17,235.34 L 144.00,236.78 L 141.64,239.72 L 140.42,241.25 L 133.42,250.03 L 131.26,252.72 L 130.26,253.97 L 128.32,256.40 L 127.45,257.49 L 125.77,259.57 L 125.05,260.47 L 123.69,262.16 L 123.15,262.83 L 122.17,264.05 L 121.83,264.46 L 121.27,265.15 L 121.16,265.28 L 120.45,266.35 L 120.37,266.78 L 120.45,266.35 L 121.16,265.28 L 121.26,265.15 L 121.80,264.50 L 122.11,264.11 L 123.04,262.97 L 123.54,262.34 L 124.80,260.77 L 125.47,259.94 L 127.02,258.00 L 127.83,256.99 L 129.63,254.75 L 130.55,253.59 L 132.54,251.10 L 138.99,243.00 L 141.24,240.18 L 145.54,234.79 L 146.58,233.49 L 148.55,231.03 L 149.51,229.82 L 151.28,227.61 L 152.14,226.54 L 153.66,224.64 L 154.39,223.73 L 155.61,222.21 L 156.18,221.51 L 157.05,220.43 L 157.91,219.39 L 158.08,219.17 L 158.83,218.26 L 159.25,217.73 L 160.45,216.24 L 161.10,215.43 L 161.72,214.66 L 161.58,214.86 L 161.46,215.12 L 161.32,215.57 L 161.43,215.70 L 161.79,215.91 L 162.18,215.95 L 163.11,216.00 L 163.82,216.00 L 166.02,215.73 L 167.08,215.27 L 167.42,214.88 L 168.00,213.97 L 168.12,213.33 L 168.27,211.91 L 168.20,211.00 L 168.21,209.70 L 168.37,209.09 L 168.55,208.88 L 168.98,208.54 L 169.33,208.43 L 170.11,208.26 L 170.65,208.22 L 172.96,207.75 L 174.18,207.19 L 174.63,206.79 L 175.43,205.91 L 175.65,205.36 L 176.00,204.18 L 176.00,203.48 L 176.32,201.92 L 176.87,201.12 L 177.32,200.84 L 178.34,200.34 L 179.04,200.20 L 180.55,200.00 L 181.51,200.00 L 182.71,199.90 L 183.22,199.69 L 183.37,199.48 L 183.58,199.00 L 183.59,198.61 L 183.57,197.75 L 183.49,197.13 L 183.43,195.69 L 183.56,194.92 L 183.72,194.60 L 184.10,194.00 L 184.40,193.73 L 185.09,193.22 L 185.56,192.97 L 187.28,191.78 L 188.00,191.02 L 188.00,190.77 L 188.27,190.31 L 188.67,190.29 L 188.92,190.45 L 189.59,190.25 L 190.06,189.60 L 190.30,189.07 L 190.78,187.91 L 191.00,187.21 L 191.43,185.73 L 191.61,184.94 L 192.25,181.70 L 192.33,180.35 L 192.36,179.08 L 192.29,178.61 L 192.10,177.78 L 191.90,177.61 L 191.55,177.91 L 191.05,178.44 L 190.69,178.86 L 189.87,179.79 L 189.36,180.38 L 188.28,181.65 L 187.66,182.39 L 186.36,183.94 L 185.64,184.81 L 184.16,186.59 L 183.37,187.54 L 181.29,190.07 L 181.34,190.00 L 183.94,186.75 L 185.22,185.15 L 187.65,182.14 L 188.85,180.67 L 191.06,177.96 L 192.14,176.65 L 194.08,174.31 L 194.46,173.86 L 193.01,175.80 L 199.00,175.93 L 202.07,176.00 L 203.70,176.05 L 204.34,176.09 L 205.51,176.17 L 205.95,176.24 L 206.73,176.39 L 207.00,176.51 L 207.47,176.76 L 207.61,176.93 L 207.85,177.32 L 207.90,177.57 L 208.00,178.75 L 208.00,179.67 L 208.29,182.06 L 208.49,182.63 L 208.61,182.81 L 208.86,183.11 L 209.00,183.12 L 212.12,183.73 L 213.73,184.29 L 214.30,184.66 L 215.30,185.45 L 215.58,185.94 L 216.00,186.98 L 216.00,187.60 L 216.23,188.83 L 216.61,189.76 L 216.89,190.25 L 218.26,192.28 L 219.21,193.21 L 220.60,194.83 L 221.54,196.17 L 221.99,196.92 L 222.85,198.44 L 223.22,199.21 L 223.90,200.73 L 224.14,201.42 L 225.00,203.63 L 225.58,204.83 L 225.88,205.28 L 226.48,206.09 L 226.78,206.35 L 227.38,206.76 L 227.68,206.81 L 229.41,207.20 L 230.59,207.56 L 231.00,207.72 L 232.26,208.17 L 232.98,208.39 L 233.17,208.41 L 233.88,208.74 L 234.44,209.16 L 234.67,209.41 L 234.91,209.86 L 234.61,209.81 L 234.25,209.60 L 233.33,209.46 L 232.94,209.81 L 232.92,210.19 L 232.76,211.85 L 232.59,213.31 L 232.50,214.00 L 232.19,216.84 L 231.97,219.14 L 231.90,220.14 L 231.67,222.02 L 231.45,222.85 L 231.27,223.09 L 230.85,223.47 L 230.53,223.53 L 229.83,223.59 L 229.34,223.53 L 227.40,223.90 L 226.07,224.60 L 225.51,225.06 L 224.52,226.02 L 224.29,226.49 L 224.12,226.95 L 224.12,227.15 L 224.20,227.53 L 224.35,227.68 L 224.46,228.17 L 224.33,228.63 L 224.18,228.90 L 223.40,230.06 L 222.84,230.64 L 221.67,231.73 L 221.12,232.07 L 220.59,232.36 L 220.37,232.42 L 219.95,232.47 L 219.81,232.38 L 218.60,232.30 L 217.74,232.77 L 217.36,233.20 L 216.63,234.16 L 216.39,234.74 L 216.00,235.96 L 216.00,236.59 L 215.49,238.31 L 214.75,239.37 L 214.28,239.77 L 213.31,240.46 L 212.84,240.57 L 211.95,240.61 L 211.64,240.30 L 211.22,240.21 L 210.82,240.31 L 210.59,240.42 L 209.56,241.04 L 209.05,241.48 L 208.06,242.41 L 207.75,242.85 L 207.48,243.27 L 207.42,243.45 L 207.36,243.78 L 207.43,243.89 L 207.40,245.00 L 206.86,245.88 L 206.39,246.32 L 205.36,247.18 L 204.74,247.54 L 203.43,248.18 L 202.75,248.35 L 201.39,248.82 L 200.76,249.21 L 200.55,249.47 L 200.21,250.06 L 200.12,250.46 L 200.00,251.33 L 200.00,251.90 L 199.56,254.28 L 198.91,255.66 L 198.50,256.00 L 197.44,256.69 L 197.00,256.77 L 197.00,256.59 L 196.38,256.45 L 195.48,256.74 L 194.90,257.05 L 193.40,258.47 L 193.09,259.70 L 193.25,260.54 L 193.33,261.80 L 193.15,262.46 L 192.90,262.75 L 192.29,263.29 L 191.80,263.57 L 190.66,264.12 L 189.85,264.44 L 188.20,265.22 L 187.32,265.77 L 187.00,266.05 L 186.42,266.63 L 186.25,266.92 L 186.00,267.50 L 186.00,267.79 L 185.66,269.41 L 185.16,270.44 L 184.84,270.76 L 184.24,272.04 L 184.34,272.50 L 184.48,272.77 L 184.83,273.32 L 185.09,273.65 L 185.69,274.42 L 185.89,274.75 L 185.90,274.83 L 185.85,274.91 L 185.73,274.87 L 185.43,274.74 L 185.18,274.59 L 184.35,274.57 L 184.12,275.12 L 184.15,275.57 L 184.32,276.56 L 184.55,277.11 L 185.09,278.22 L 185.50,278.71 L 186.43,279.53 L 187.02,279.73 L 188.27,279.97 L 188.91,279.90 L 190.18,279.61 L 190.73,279.28 L 191.74,278.49 L 192.04,277.93 L 192.53,276.84 L 192.64,276.32 L 192.57,276.13 L 192.34,275.79 L 192.10,275.67 L 191.51,275.42 L 191.07,275.31 L 189.61,274.78 L 189.20,274.52 L 189.49,274.61 L 189.81,274.69 L 190.84,274.81 L 191.40,274.87 L 192.82,274.95 L 195.25,275.00 L 200.39,275.00 L 200.39,275.00 L 200.33,275.00 L 199.32,275.37 L 198.87,275.92 L 198.78,276.29 L 198.69,277.08 L 198.79,277.49 L 199.10,278.32 L 199.42,278.69 L 199.82,279.02 L 200.14,279.17 L 200.85,279.46 L 201.29,279.57 L 203.22,279.95 L 204.25,279.96 L 206.54,279.90 L 207.46,279.61 L 207.71,279.20 L 207.92,278.74 L 207.99,278.42 L 208.10,277.70 L 208.14,277.22 L 208.19,276.19 L 208.20,275.54 L 208.22,274.15 L 208.23,273.30 L 208.33,271.51 L 208.54,270.78 L 208.77,270.58 L 209.36,270.29 L 209.85,270.25 L 211.00,270.25 L 211.86,270.30 L 214.42,270.15 L 215.02,269.98 L 215.21,269.87 L 215.51,269.64 L 215.52,269.50 L 215.93,267.26 L 216.39,266.02 L 216.70,265.56 L 217.36,264.77 L 217.73,264.58 L 218.51,264.34 L 218.91,264.47 L 220.64,264.28 L 221.86,263.60 L 222.37,263.11 L 223.29,262.05 L 223.51,261.50 L 223.69,260.96 L 223.69,260.71 L 223.64,260.23 L 223.51,260.02 L 223.38,258.78 L 223.78,257.84 L 224.18,257.36 L 225.09,256.41 L 225.69,255.99 L 226.98,255.20 L 227.73,254.91 L 229.61,253.63 L 230.66,252.39 L 230.90,251.77 L 232.13,249.58 L 233.23,248.23 L 233.83,247.69 L 235.03,246.74 L 235.56,246.51 L 236.55,246.22 L 236.87,246.42 L 237.29,246.42 L 237.56,246.16 L 237.67,245.92 L 238.10,244.70 L 238.19,243.77 L 238.46,242.06 L 238.74,241.28 L 238.98,241.02 L 239.52,240.59 L 239.93,240.46 L 240.86,240.24 L 241.50,240.17 L 244.29,239.46 L 245.78,238.64 L 246.33,238.06 L 247.29,236.80 L 247.58,236.02 L 248.00,234.35 L 248.00,233.36 L 248.07,231.54 L 248.25,230.78 L 248.45,230.59 L 248.95,230.30 L 249.36,230.28 L 250.33,230.31 L 251.04,230.39 L 252.31,230.47 L 252.96,230.43 L 253.19,230.36 L 253.57,230.20 L 253.65,230.08 L 253.75,229.80 L 253.69,229.62 L 252.91,228.92 L 252.07,228.72 L 251.60,228.80 L 250.78,228.89 L 250.47,228.82 L 250.44,228.70 L 250.45,228.39 L 250.58,228.14 L 250.89,227.54 L 251.16,227.12 L 252.26,225.85 L 252.95,225.47 L 253.16,225.60 L 253.66,225.46 L 254.16,225.06 L 254.46,224.74 L 255.10,224.01 L 255.44,223.54 L 256.15,222.56 L 256.50,222.00 L 259.04,218.79 L 259.95,217.90 L 260.38,217.56 L 261.20,216.96 L 261.54,216.80 L 262.72,216.10 L 263.29,215.55 L 263.48,215.21 L 263.80,214.47 L 263.88,214.00 L 264.00,212.98 L 264.00,212.34 L 263.85,210.37 L 263.55,209.51 L 263.25,209.27 L 262.53,208.90 L 261.97,208.86 L 260.68,208.85 L 259.77,208.94 L 258.01,208.70 L 257.01,208.14 L 256.64,207.71 L 256.00,206.75 L 255.84,206.17 L 255.67,204.96 L 255.79,204.30 L 255.74,202.38 L 255.37,201.15 L 255.06,200.66 L 254.40,199.79 L 254.02,199.58 L 253.24,199.35 L 252.88,199.58 L 251.66,199.78 L 250.54,199.67 L 249.99,199.50 L 249.06,199.02 L 248.60,198.57 L 248.44,198.25 L 248.17,197.55 L 248.10,197.09 L 248.00,196.08 L 248.00,195.45 L 247.90,193.67 L 247.70,192.83 L 247.51,192.55 L 247.04,192.05 L 246.67,191.88 L 245.84,191.58 L 245.25,191.46 L 242.83,190.82 L 241.52,190.32 L 241.03,190.06 L 240.18,189.51 L 239.94,189.23 L 239.60,188.67 L 239.65,188.39 L 239.48,187.07 L 239.07,186.09 L 238.79,185.66 L 238.19,184.86 L 237.89,184.63 L 237.30,184.32 L 237.08,184.45 L 236.52,184.53 L 236.05,184.41 L 235.78,184.28 L 234.65,183.57 L 234.09,183.04 L 233.01,181.91 L 232.63,181.32 L 232.00,180.15 L 232.00,179.69 L 231.38,178.22 L 230.48,177.16 L 229.92,176.70 L 228.77,175.85 L 228.24,175.63 L 227.25,175.35 L 226.95,175.53 L 226.06,175.50 L 225.43,175.01 L 225.14,174.58 L 224.57,173.60 L 224.34,172.99 L 223.94,171.71 L 223.85,171.00 L 223.53,169.79 L 223.19,169.17 L 222.93,168.93 L 222.34,168.51 L 221.94,168.36 L 221.07,168.09 L 220.50,168.00 L 218.23,167.21 L 217.64,166.83 L 217.43,166.62 L 217.07,166.21 L 217.00,166.00 L 216.90,165.43 L 216.84,164.80 L 216.81,164.38 L 216.69,162.40 L 216.65,161.06 L 216.56,158.20 L 216.54,156.54 L 216.50,153.12 L 216.50,151.30 L 216.42,145.88 L 216.30,142.75 L 216.21,141.49 L 216.01,139.21 L 215.88,138.45 L 215.75,137.76 L 215.68,137.53 L 215.54,137.14 L 215.46,137.06 L 214.77,136.74 L 213.99,136.54 L 213.47,136.44 L 211.07,136.09 L 209.61,135.97 L 206.59,135.77 L 205.13,135.74 L 202.30,135.76 L 201.25,135.87 L 200.75,136.17 L 200.47,136.59 L 200.35,136.90 L 200.00,138.35 L 200.00,139.31 L 199.63,142.50 L 199.02,144.10 L 198.54,144.62 L 197.48,145.49 L 196.79,145.64 L 195.30,145.74 L 194.41,145.49 L 191.77,145.01 L 190.01,144.91 L 189.20,144.97 L 187.62,145.15 L 186.97,145.34 L 185.77,145.79 L 185.38,146.11 L 184.91,147.20 L 184.67,148.54 L 184.59,149.50 L 184.45,151.62 L 184.42,152.96 L 184.39,155.80 L 184.42,157.47 L 184.58,167.91 L 181.79,167.59 L 179.82,167.63 L 179.36,167.76 L 179.22,167.86 L 179.00,168.06 L 179.00,168.19 L 178.71,168.67 L 178.30,168.68 L 178.03,168.52 L 177.60,168.51 L 177.31,168.72 L 177.16,168.91 L 176.61,169.94 L 176.45,170.71 L 176.07,172.37 L 175.84,173.28 L 175.72,173.64 L 175.27,174.88 L 174.97,175.23 L 174.32,175.77 L 173.85,175.88 L 172.77,176.00 L 172.00,176.00 L 170.52,176.12 L 169.74,176.32 L 169.43,176.50 L 168.87,176.91 L 168.65,177.20 L 168.25,177.83 L 168.10,178.25 L 167.64,180.18 L 167.58,181.33 L 167.70,181.65 L 167.77,182.63 L 167.45,183.16 L 167.09,183.37 L 166.26,183.74 L 165.63,183.87 L 164.25,184.10 L 163.35,184.17 L 161.73,184.39 L 161.06,184.68 L 160.87,184.96 L 160.59,185.64 L 160.54,186.21 L 160.51,187.50 L 160.54,188.45 L 160.41,191.92 L 160.29,193.00 L 160.20,193.45 L 160.03,194.30 L 159.92,194.58 L 159.65,196.46 L 159.79,197.67 L 160.03,198.04 L 160.53,198.61 L 160.89,198.73 L 161.11,198.64 L 161.56,198.39 L 161.85,198.11 L 162.46,197.45 L 162.86,196.96 L 163.55,196.10 L 164.28,195.19 L 164.76,194.59 L 165.81,193.28 L 166.44,192.50 L 167.75,190.86 L 168.50,189.94 L 170.04,188.01 L 170.88,186.97 L 172.61,184.82 L 173.52,183.68 L 177.30,178.97 L 179.29,176.50 L 193.75,158.50 L 190.87,155.45 L 188.84,153.09 L 188.37,152.45 L 188.23,152.22 L 188.00,151.80 L 188.23,152.22 M 101.98,285.97 L 101.80,286.00 L 101.42,285.95 M 103.20,285.76 L 102.27,285.92 L 103.34,285.69 M 122.64,270.12 L 123.52,271.03 L 122.64,270.12 M 196.91,265.46 L 195.33,267.17 L 194.57,267.99 L 193.21,269.48 L 192.56,270.20 L 191.46,271.43 L 190.94,272.00 L 190.13,272.93 L 189.77,273.35 L 189.29,273.93 L 189.00,274.37 L 189.00,274.25 L 189.29,273.84 L 189.77,273.28 L 190.13,272.86 L 190.94,271.95 L 191.46,271.37 L 192.56,270.16 L 193.21,269.45 L 194.57,267.97 L 195.33,267.15 L 196.91,265.45 L 197.77,264.53 L 201.36,260.70 L 197.77,264.54 M 237.77,236.21 L 234.87,239.33 L 229.08,245.51 L 226.30,248.46 L 224.51,250.36 L 227.09,247.59 L 233.18,241.06 L 234.67,239.46 L 237.52,236.39 L 238.92,234.89 L 241.54,232.07 L 242.82,230.70 L 245.13,228.21 L 246.24,227.01 L 248.17,224.93 L 249.07,223.95 L 250.54,222.37 L 252.13,220.64 L 243.61,229.91 M 74.08,194.35 L 72.92,195.61 L 70.71,198.01 L 69.63,199.19 L 67.61,201.40 L 66.63,202.47 L 64.84,204.44 L 63.98,205.39 L 62.46,207.08 L 61.74,207.89 L 60.52,209.26 L 59.95,209.90 L 59.06,210.93 L 58.66,211.39 L 58.15,212.02 L 57.92,212.36 L 57.79,212.16 L 57.81,212.12 L 58.25,211.58 L 58.90,210.84 L 59.38,210.30 L 60.45,209.12 L 61.13,208.38 L 62.57,206.80 L 63.41,205.89 L 65.16,203.98 L 66.14,202.91 L 68.17,200.72 L 69.26,199.54 L 73.84,194.59 L 76.34,191.90 L 76.96,191.24 M 71.18,212.06 L 71.18,212.05 L 71.20,212.00 L 71.35,211.80 M 155.84,52.14 L 155.17,52.32 L 154.79,52.42 L 153.84,52.70 L 153.32,52.85 L 152.10,53.22 L 150.81,53.61 L 147.50,54.64 L 145.74,55.19 L 141.58,56.52 L 139.40,57.22 L 134.52,58.79 L 132.00,59.61 L 126.52,61.40 L 123.72,62.32 L 117.78,64.28 L 108.50,67.37 L 105.66,68.32 L 100.51,70.04 L 98.01,70.87 L 93.50,72.38 L 91.33,73.11 L 87.44,74.42 L 85.56,75.05 L 82.24,76.18 L 80.65,76.72 L 77.86,77.68 L 76.52,78.14 L 74.23,78.95 L 73.14,79.34 L 71.30,80.01 L 70.43,80.33 L 69.00,80.88 L 68.34,81.14 L 67.29,81.58 L 66.80,81.79 L 66.09,82.14 L 65.77,82.31 L 65.35,82.59 L 65.18,82.72 L 65.02,82.93 L 64.91,83.14 L 65.31,83.44 L 66.50,83.84 L 66.77,83.91 L 67.58,84.15 L 68.02,84.28 L 69.12,84.61 L 70.28,84.97 L 73.29,85.91 L 74.88,86.41 L 78.44,87.54 L 84.00,89.33 L 85.23,89.73 L 84.15,89.48 L 83.60,89.39 L 82.56,89.25 L 82.14,89.25 L 81.34,89.28 L 81.02,89.36 L 80.44,89.56 L 80.22,89.72 L 79.54,90.54 L 79.44,91.19 L 79.62,93.34 L 80.25,94.51 L 80.79,94.94 L 82.01,95.69 L 82.82,95.89 L 84.57,96.16 L 85.61,96.09 L 88.80,95.96 L 89.73,95.95 L 90.11,95.95 L 90.79,95.97 L 91.00,95.99 L 92.00,96.05 L 92.99,96.11 L 93.60,96.14 L 96.31,96.26 L 97.75,96.31 L 99.79,96.42 L 101.00,96.53 L 101.48,96.59 L 102.36,96.72 L 102.63,96.79 L 103.07,96.93 L 103.08,97.00 L 103.27,97.94 L 103.50,98.95 L 103.63,99.50 L 104.31,103.30 L 104.57,105.81 L 104.60,106.93 L 104.59,109.07 L 104.48,109.87 L 104.35,110.62 L 104.26,110.91 L 104.06,111.43 L 103.93,111.58 L 103.50,112.67 L 103.31,113.80 L 103.26,114.51 L 103.16,117.69 L 103.26,119.44 L 103.56,122.94 L 103.82,124.35 L 104.11,125.67 L 104.27,126.17 L 104.63,127.03 L 104.82,127.22 L 105.50,127.58 L 106.21,127.78 L 106.67,127.87 L 108.74,128.16 L 109.98,128.22 L 112.52,128.29 L 113.74,128.23 L 116.07,128.04 L 116.92,127.84 L 117.61,127.95 L 118.06,128.30 L 118.27,128.60 L 118.70,129.29 L 118.91,129.76 L 119.31,130.79 L 119.49,131.42 L 120.86,134.43 L 121.42,135.19 L 121.71,135.47 L 122.29,135.94 L 122.57,136.04 L 124.28,136.44 L 125.31,136.44 L 127.42,136.34 L 128.41,136.14 L 130.30,135.66 L 130.95,135.32 L 131.54,134.97 L 131.72,134.78 L 132.00,134.38 L 132.00,134.17 L 131.74,133.87 L 131.33,133.56 L 131.01,133.36 L 130.31,132.93 L 129.86,132.67 L 128.89,132.13 L 128.33,131.82 L 127.37,131.32 L 131.25,133.19 L 134.58,134.79 L 140.73,137.73 L 142.20,138.43 L 144.79,139.66 L 142.83,138.77 L 140.51,137.79 L 139.55,137.42 L 137.80,136.76 L 137.21,136.59 L 136.68,136.44 L 136.50,136.41 L 136.20,136.38 L 136.15,136.41 L 135.88,136.86 L 135.76,137.38 L 135.73,137.73 L 135.67,139.33 L 135.78,140.26 L 136.10,142.17 L 136.43,142.97 L 136.76,143.19 L 137.54,143.54 L 138.19,143.61 L 139.71,143.71 L 140.84,143.74 L 143.64,143.82 L 145.21,143.90 L 145.86,143.95 L 147.09,144.08 L 147.60,144.17 L 148.54,144.37 L 148.92,144.50 L 150.25,145.11 L 150.70,145.60 L 151.52,146.71 L 151.89,147.50 L 153.21,149.83 L 153.66,150.47 L 153.87,150.71 L 154.25,151.13 L 154.40,151.23 L 155.04,151.62 L 155.33,151.75 L 155.86,151.97 L 156.00,151.97 L 156.86,151.69 L 157.51,151.23 L 157.88,150.88 L 158.62,150.09 L 159.02,149.59 L 159.82,148.50 L 160.22,147.86 L 161.20,146.63 L 161.96,145.98 L 162.40,145.72 L 163.33,145.26 L 163.88,145.09 L 165.03,144.79 L 165.70,144.70 L 169.17,144.21 L 171.06,143.91 L 171.83,143.76 L 173.24,143.45 L 173.79,143.28 L 174.78,142.93 L 175.14,142.73 L 175.79,142.31 L 176.00,142.05 L 176.36,141.51 L 176.46,141.18 L 176.64,139.72 L 176.57,138.67 L 176.19,137.22 L 175.90,136.98 L 175.66,136.94 L 175.13,136.93 L 174.74,137.01 L 173.90,137.23 L 173.33,137.44 L 172.10,137.91 L 171.31,138.25 L 169.61,138.99 L 168.56,139.47 L 166.33,140.49 L 164.98,141.12 L 156.46,145.08 L 155.35,144.56 L 155.63,144.68 L 156.28,144.93 L 156.33,144.94 L 156.89,144.73 L 157.24,144.59 L 158.34,144.11 L 158.95,143.84 L 160.52,143.12 L 161.37,142.73 L 163.36,141.81 L 164.40,141.32 L 166.75,140.22 L 167.96,139.65 L 170.59,138.39 L 173.29,137.10 L 179.28,134.20 L 182.34,132.72 L 188.09,129.91 L 189.47,129.24 L 192.07,127.97 L 193.33,127.35 L 195.63,126.22 L 196.74,125.67 L 198.69,124.71 L 199.61,124.26 L 201.12,123.50 L 201.82,123.15 L 202.16,122.98 L 201.45,123.37 L 200.25,123.94 L 198.21,124.98 L 197.02,125.65 L 196.54,125.95 L 195.68,126.53 L 195.41,126.75 L 195.00,127.16 L 195.00,127.27 L 195.18,127.48 L 195.49,127.57 L 196.27,127.72 L 196.84,127.77 L 198.08,127.84 L 198.82,127.85 L 200.39,127.84 L 201.25,127.80 L 207.50,127.50 L 208.33,123.50 L 208.64,119.75 L 208.32,117.52 L 207.90,116.50 L 206.63,113.50 L 206.07,117.47 L 205.72,119.15 L 205.75,118.98 L 205.85,117.87 L 205.90,117.26 L 205.95,115.73 L 205.97,114.90 L 205.99,112.86 L 206.00,109.13 L 206.00,107.73 L 206.01,105.40 L 206.02,104.31 L 206.05,102.53 L 206.07,101.70 L 206.15,100.39 L 206.19,99.79 L 206.32,98.86 L 206.40,98.44 L 206.60,97.80 L 206.71,97.52 L 207.00,97.09 L 208.25,96.18 L 208.37,96.12 L 209.01,95.87 L 209.40,95.73 L 210.25,95.43 L 210.23,95.44 L 210.21,95.46 L 210.19,95.55 L 210.30,95.59 L 210.60,95.67 L 210.85,95.70 L 212.13,95.81 L 213.08,95.83 L 215.16,95.86 L 216.39,95.86 L 218.95,95.83 L 220.30,95.79 L 223.01,95.71 L 224.32,95.65 L 226.87,95.52 L 227.97,95.45 L 230.02,95.28 L 230.75,95.19 L 231.42,95.09 L 231.67,95.04 L 232.08,94.94 L 232.18,94.89 L 233.39,93.44 L 233.81,91.93 L 233.78,91.00 L 233.64,88.88 L 233.58,88.39 L 233.54,88.24 L 233.47,88.00 L 233.43,88.00 L 233.06,88.08 L 232.58,88.21 L 232.24,88.31 L 230.64,88.78 L 229.55,89.12 L 228.09,89.57 L 229.06,89.26 L 231.54,88.47 L 236.36,86.95 L 238.70,86.22 L 242.82,84.95 L 243.78,84.65 L 245.47,84.14 L 246.27,83.90 L 247.59,83.51 L 248.20,83.34 L 249.08,83.10 L 249.18,83.07 L 242.73,84.99 L 239.76,85.93 L 238.05,86.52 L 237.40,86.77 L 236.22,87.25 L 235.89,87.43 L 235.40,87.74 L 235.47,87.80 L 236.03,88.05 L 236.64,88.17 L 237.04,88.20 L 238.90,88.30 L 240.05,88.27 L 242.44,88.16 L 243.65,88.03 L 246.02,87.72 L 247.00,87.49 L 250.16,86.85 L 252.20,86.50 L 252.84,86.43 L 254.71,86.09 L 255.49,85.74 L 255.68,85.46 L 255.95,84.81 L 255.92,84.33 L 255.77,83.23 L 255.58,82.46 L 255.20,81.33 L 254.89,80.79 L 254.72,80.61 L 254.35,80.34 L 254.14,80.30 L 253.70,80.28 L 253.46,80.38 L 251.91,80.63 L 250.90,80.50 L 250.47,80.30 L 249.67,79.84 L 249.41,79.52 L 249.00,78.81 L 249.00,78.39 L 248.69,77.41 L 248.23,77.00 L 247.94,77.00 L 247.35,76.75 L 247.27,76.37 L 247.42,76.13 L 247.60,75.46 L 247.49,75.00 L 247.34,74.78 L 246.50,73.90 L 245.78,73.52 L 244.16,72.83 L 243.17,72.61 L 241.09,72.25 L 239.97,72.26 L 237.78,72.22 L 236.06,72.14 L 235.15,72.08 L 231.45,71.79 L 229.93,71.60 L 227.11,71.17 L 225.82,70.85 L 225.40,70.65 L 224.73,70.21 L 224.55,69.91 L 224.29,69.25 L 224.26,68.81 L 223.67,66.60 L 223.27,66.06 L 222.98,65.84 L 222.35,65.44 L 221.93,65.27 L 221.01,64.98 L 220.43,64.87 L 219.18,64.67 L 218.42,64.60 L 216.79,64.47 L 215.82,64.43 L 213.76,64.36 L 212.55,64.34 L 208.98,64.22 L 206.91,64.09 L 206.02,64.00 L 204.33,63.80 L 203.63,63.67 L 202.32,63.38 L 201.80,63.21 L 200.84,62.84 L 200.49,62.63 L 199.87,62.17 L 199.69,61.91 L 199.39,61.36 L 199.36,61.04 L 199.38,60.39 L 199.49,60.02 L 199.69,59.01 L 199.65,58.43 L 199.53,58.19 L 199.20,57.72 L 198.91,57.52 L 198.23,57.14 L 197.75,56.98 L 196.67,56.67 L 195.97,56.54 L 194.43,56.29 L 193.47,56.17 L 191.42,55.95 L 190.18,55.85 L 187.55,55.64 L 186.00,55.53 L 182.87,55.31 L 181.13,55.17 L 180.42,55.09 L 179.10,54.95 L 178.57,54.87 L 177.61,54.70 L 177.25,54.61 L 176.08,54.20 L 175.82,53.91 L 175.49,53.27 L 175.49,52.82 L 175.40,51.65 L 175.24,51.00 L 175.07,50.74 L 174.67,50.25 L 174.34,50.06 L 173.60,49.70 L 173.06,49.56 L 171.88,49.30 L 171.09,49.20 L 169.37,49.02 L 168.27,48.95 L 165.91,48.82 L 164.46,48.77 L 161.36,48.66 L 159.50,48.61 L 155.15,48.46 L 152.53,48.35 L 151.44,48.29 L 149.43,48.16 L 148.76,48.10 L 148.14,48.04 L 147.93,48.02 L 147.57,47.96 L 147.50,47.94 L 145.58,47.98 L 143.87,48.50 L 142.91,48.97 L 140.95,50.01 L 139.98,50.68 L 138.08,52.09 L 137.26,52.88 L 135.29,54.60 L 134.10,55.33 L 133.39,55.54 L 131.85,55.86 L 130.76,55.92 L 129.60,55.97 L 128.91,55.99 L 127.44,56.00 L 126.57,56.00 L 123.62,56.08 L 121.85,56.21 L 121.12,56.31 L 119.77,56.51 L 119.31,56.64 L 118.56,56.90 L 118.47,57.04 L 117.48,57.60 L 116.50,57.66 L 116.00,57.50 L 114.72,57.41 L 113.96,57.69 L 113.64,57.99 L 113.05,58.67 L 112.83,59.16 L 112.45,60.22 L 112.35,60.88 L 111.73,62.52 L 110.93,63.29 L 110.27,63.54 L 108.76,63.94 L 107.67,64.03 L 106.52,64.11 L 105.85,64.12 L 104.44,64.14 L 103.63,64.12 L 101.02,64.07 L 99.43,64.03 L 98.77,64.01 L 97.54,63.97 L 97.11,63.94 L 96.40,63.90 L 96.29,63.88 L 95.72,63.88 L 95.12,63.95 L 94.74,64.00 L 93.06,64.30 L 92.14,64.51 L 90.48,65.05 L 89.58,65.53 L 89.20,65.86 L 88.51,66.56 L 88.21,67.02 L 87.64,68.02 L 87.38,68.64 L 86.17,70.97 L 85.79,71.50 L 85.64,71.66 L 85.34,71.89 L 85.24,71.88 L 83.58,71.78 L 82.63,71.87 L 82.29,71.99 L 81.68,72.26 L 81.55,72.45 L 81.41,72.86 L 81.56,73.10 L 81.77,73.55 L 81.73,73.70 L 81.62,73.70 L 81.34,73.65 L 81.11,73.55 L 80.57,73.31 L 80.20,73.11 L 78.92,72.71 L 77.69,72.50 L 76.95,72.42 L 73.70,72.23 L 72.01,72.31 L 69.89,72.47 L 68.68,72.61 L 68.16,72.71 L 66.32,73.17 L 65.71,73.53 L 64.68,74.35 L 64.41,74.93 L 64.02,76.21 L 64.02,77.05 L 63.63,78.67 L 63.02,79.57 L 62.56,79.91 L 61.55,80.53 L 60.92,80.72 L 59.58,81.00 L 58.80,81.00 L 57.40,81.10 L 56.75,81.29 L 56.54,81.46 L 56.20,81.88 L 56.12,82.19 L 56.00,82.89 L 56.00,83.38 L 56.34,85.38 L 56.94,86.35 L 57.45,86.67 L 58.63,87.20 L 59.46,87.32 L 61.30,87.47 L 62.50,87.43 L 65.62,87.54 L 66.47,87.67 L 66.80,87.75 L 67.36,87.93 L 67.50,88.04 L 68.94,88.68 L 70.31,89.06 L 71.00,89.15 L 72.35,89.25 L 72.86,89.18 L 73.74,88.95 L 73.84,88.74 L 74.38,88.40 L 74.93,88.46 L 75.22,88.63 L 75.83,88.69 L 75.93,88.29 L 75.80,87.89 L 75.11,87.21 L 74.21,86.65 L 73.59,86.35 L 72.24,85.75 L 71.45,85.45 L 69.80,84.86 L 68.92,84.59 L 62.50,82.67 L 108.50,67.34 L 117.78,64.26 L 123.72,62.30 L 126.52,61.39 L 132.00,59.60 L 134.52,58.78 L 139.40,57.21 L 141.58,56.51 L 145.74,55.19 L 147.50,54.63 L 150.81,53.60 L 152.10,53.22 L 153.32,52.85 L 153.84,52.70 L 154.79,52.42 L 155.17,52.32 L 155.84,52.14 L 156.06,52.08 L 156.44,52.00 L 156.06,52.08 M 192.69,127.92 L 192.14,128.09 L 191.79,128.23 L 191.02,128.55 L 190.54,128.77 L 189.53,129.24 L 188.92,129.53 L 187.64,130.16 L 186.89,130.53 L 183.98,131.99 L 182.43,132.78 L 181.83,133.09 L 180.74,133.68 L 180.35,133.91 L 179.66,134.34 L 179.45,134.50 L 179.12,134.82 L 179.06,134.95 L 179.01,135.19 L 179.08,135.31 L 179.57,135.75 L 180.03,136.05 L 180.84,136.38 L 181.53,136.47 L 183.09,136.62 L 184.08,136.62 L 186.19,136.58 L 187.38,136.49 L 189.83,136.27 L 191.12,136.09 L 191.41,135.84 L 191.62,135.48 L 191.73,135.22 L 192.15,134.01 L 192.30,133.25 L 192.91,130.77 L 193.37,129.17 L 193.57,128.67 L 193.61,127.91 L 193.19,127.78 M 107.00,121.61 L 107.00,121.51 L 113.56,124.67 M 156.95,52.08 L 157.48,52.21 L 157.85,52.32 L 158.67,52.55 L 159.18,52.70 L 160.27,53.02 L 160.92,53.21 L 163.75,54.08 L 165.51,54.63 L 169.26,55.81 L 171.44,56.51 L 175.98,57.96 L 178.50,58.78 L 183.69,60.47 L 186.49,61.38 L 192.21,63.26 L 195.23,64.26 L 201.35,66.29 L 204.51,67.34 L 250.50,82.68 L 249.82,82.88 L 249.69,82.82 L 249.56,82.76 L 249.04,82.55 L 248.74,82.43 L 247.90,82.12 L 247.44,81.95 L 246.31,81.55 L 245.70,81.33 L 244.30,80.84 L 243.56,80.58 L 241.91,80.01 L 240.19,79.41 L 236.11,78.02 L 233.98,77.29 L 229.20,75.68 L 226.73,74.85 L 221.43,73.07 L 218.72,72.16 L 213.07,70.28 L 210.22,69.33 L 204.41,67.40 L 198.60,65.47 L 187.24,61.74 L 184.49,60.84 L 179.28,59.14 L 176.74,58.31 L 172.09,56.81 L 169.85,56.09 L 165.95,54.84 L 164.10,54.26 L 161.12,53.32 L 160.44,53.11 L 159.29,52.76 L 158.75,52.60 L 157.88,52.35 L 157.49,52.24 L 156.95,52.09 L 156.51,52.00 M 242.42,212.32 L 241.82,211.61 L 240.50,210.08 L 239.68,209.14 L 237.93,207.17 L 236.93,206.04 L 234.85,203.71 L 233.71,202.44 L 231.36,199.84 L 230.12,198.47 L 224.98,192.82 L 222.83,190.47 L 224.93,192.74 L 230.07,198.39 L 231.31,199.76 L 233.66,202.36 L 234.80,203.63 L 236.89,205.96 L 237.90,207.09 L 239.65,209.07 L 240.47,210.01 L 241.80,211.56 L 242.40,212.27 L 243.23,213.29 L 243.83,214.13 L 243.25,213.32 M 99.84,94.36 L 97.88,93.77 L 96.80,93.43 L 92.32,91.99 L 92.11,91.92 L 94.93,92.80 L 96.58,93.31 L 99.34,94.15 L 99.97,94.33 L 101.02,94.64 L 102.25,94.99 L 107.00,96.26 L 102.25,95.03 Z" fill="rgb(254,254,254)"/>
<path d="M 96.66,287.32 L 96.48,287.14 L 96.19,286.11 L 96.00,284.11 L 96.00,281.55 L 97.56,283.78 L 97.99,284.39 L 99.14,285.24 L 99.74,285.59 L 101.11,285.91 L 101.80,286.00 L 103.20,285.76 L 105.14,284.75 L 105.34,284.58 L 105.98,283.93 L 106.33,283.56 L 107.16,282.62 L 109.91,279.25 L 113.17,275.00 L 120.29,275.00 L 127.41,275.00 L 123.52,271.03 L 122.64,270.12 L 121.46,268.82 L 120.97,268.24 L 120.49,267.40 L 120.33,267.01 L 120.45,266.35 L 121.16,265.28 L 121.27,265.15 L 121.83,264.46 L 122.17,264.05 L 123.15,262.83 L 123.69,262.16 L 125.05,260.47 L 125.77,259.57 L 127.45,257.49 L 128.32,256.40 L 130.26,253.97 L 131.26,252.72 L 133.42,250.03 L 140.42,241.25 L 141.64,239.72 L 144.00,236.78 L 145.17,235.34 L 147.38,232.61 L 148.46,231.28 L 150.46,228.83 L 151.44,227.65 L 153.19,225.54 L 154.03,224.53 L 155.48,222.81 L 156.17,222.01 L 157.26,220.76 L 157.76,220.19 L 158.45,219.45 L 158.98,219.00 L 159.10,219.00 L 159.28,219.28 L 159.36,219.47 L 159.47,220.06 L 159.57,220.72 L 159.55,222.65 L 159.51,223.66 L 159.25,225.85 L 158.60,228.76 L 158.39,229.39 L 157.80,230.20 L 156.93,230.46 L 156.67,230.30 L 156.27,230.34 L 156.00,230.87 L 156.00,231.14 L 155.34,231.66 L 153.75,232.18 L 153.35,232.24 L 152.71,232.47 L 152.42,232.60 L 152.00,233.00 L 151.81,233.23 L 151.57,233.84 L 151.39,235.00 L 151.34,236.17 L 151.21,237.75 L 151.13,238.44 L 150.82,239.25 L 150.64,239.58 L 150.03,239.87 L 148.62,240.00 L 147.92,240.00 L 146.68,240.37 L 146.10,240.62 L 145.15,241.44 L 144.72,241.90 L 144.11,243.10 L 143.65,245.28 L 143.60,246.04 L 143.03,247.08 L 141.50,247.86 L 140.17,248.02 L 137.49,248.43 L 136.89,248.53 L 135.97,248.69 L 135.21,248.87 L 135.14,248.91 L 135.29,249.48 L 135.88,250.78 L 136.24,251.45 L 136.36,252.73 L 136.33,253.34 L 135.75,254.40 L 135.39,254.88 L 134.23,255.56 L 131.95,256.00 L 131.14,256.00 L 129.82,256.37 L 129.54,256.48 L 129.14,256.76 L 128.84,257.25 L 128.74,258.04 L 128.57,259.88 L 128.49,260.84 L 128.36,263.00 L 128.29,264.12 L 128.20,266.57 L 128.10,270.56 L 128.08,271.59 L 127.99,273.34 L 127.93,274.16 L 127.72,275.55 L 127.59,276.19 L 127.23,277.25 L 127.02,277.74 L 126.47,278.51 L 126.17,278.87 L 125.39,279.40 L 124.97,279.64 L 123.93,279.98 L 123.37,280.13 L 122.03,280.31 L 119.65,280.45 L 118.87,280.48 L 117.55,280.55 L 116.92,280.59 L 115.87,280.72 L 114.89,280.86 L 113.60,281.40 L 113.04,281.72 L 112.39,282.74 L 111.83,285.00 L 111.76,285.59 L 111.49,286.40 L 111.30,286.75 L 110.53,287.17 L 110.28,287.26 L 109.63,287.40 L 109.28,287.46 L 108.36,287.55 L 107.87,287.59 L 106.65,287.65 L 104.41,287.74 L 103.43,287.77 L 101.60,287.78 L 100.72,287.78 L 99.20,287.72 L 98.50,287.68 L 97.47,287.56 L 97.03,287.49 M 185.50,278.71 L 185.09,278.22 L 184.55,277.11 L 184.32,276.56 L 184.15,275.57 L 184.12,275.12 L 184.35,274.57 L 185.18,274.59 L 185.43,274.74 L 185.73,274.87 L 185.85,274.91 L 185.90,274.83 L 185.89,274.75 L 185.69,274.42 L 185.09,273.65 L 184.83,273.32 L 184.48,272.77 L 184.34,272.50 L 184.24,272.04 L 184.84,270.76 L 185.16,270.44 L 185.66,269.41 L 186.00,267.79 L 186.00,267.50 L 186.25,266.92 L 186.42,266.63 L 187.00,266.05 L 187.32,265.77 L 188.20,265.22 L 189.85,264.44 L 190.66,264.12 L 191.80,263.57 L 192.29,263.29 L 192.90,262.75 L 193.15,262.46 L 193.33,261.80 L 193.25,260.54 L 193.09,259.70 L 193.40,258.47 L 194.90,257.05 L 195.48,256.74 L 196.38,256.45 L 197.00,256.59 L 197.00,256.77 L 197.44,256.69 L 198.50,256.00 L 198.91,255.66 L 199.56,254.28 L 200.00,251.90 L 200.00,251.33 L 200.12,250.46 L 200.21,250.06 L 200.55,249.47 L 200.76,249.21 L 201.39,248.82 L 202.75,248.35 L 203.43,248.18 L 204.74,247.54 L 205.36,247.18 L 206.39,246.32 L 206.86,245.88 L 207.40,245.00 L 207.43,243.89 L 207.36,243.78 L 207.42,243.45 L 207.48,243.27 L 207.75,242.85 L 208.06,242.41 L 209.05,241.48 L 209.56,241.04 L 210.59,240.42 L 210.82,240.31 L 211.22,240.21 L 211.64,240.30 L 211.95,240.61 L 212.84,240.57 L 213.31,240.46 L 214.28,239.77 L 214.75,239.37 L 215.49,238.31 L 216.00,236.59 L 216.00,235.96 L 216.39,234.74 L 216.63,234.16 L 217.36,233.20 L 217.74,232.77 L 218.60,232.30 L 219.81,232.38 L 219.95,232.47 L 220.37,232.42 L 220.59,232.36 L 221.12,232.07 L 221.67,231.73 L 222.84,230.64 L 223.40,230.06 L 224.18,228.90 L 224.33,228.63 L 224.46,228.17 L 224.35,227.68 L 224.20,227.53 L 224.12,227.15 L 224.12,226.95 L 224.29,226.49 L 224.52,226.02 L 225.51,225.06 L 226.07,224.60 L 227.40,223.90 L 229.34,223.53 L 229.83,223.59 L 230.53,223.53 L 230.85,223.47 L 231.27,223.09 L 231.45,222.85 L 231.67,222.02 L 231.90,220.14 L 231.97,219.14 L 232.19,216.84 L 232.50,214.00 L 232.59,213.31 L 232.76,211.85 L 232.92,210.19 L 232.94,209.81 L 233.33,209.46 L 234.25,209.60 L 234.61,209.81 L 234.91,209.86 L 234.67,209.41 L 234.44,209.16 L 233.88,208.74 L 233.17,208.41 L 232.98,208.39 L 232.26,208.17 L 231.00,207.72 L 230.59,207.56 L 229.41,207.20 L 227.68,206.81 L 227.38,206.76 L 226.78,206.35 L 226.48,206.09 L 225.88,205.28 L 225.58,204.83 L 225.00,203.63 L 224.14,201.42 L 223.90,200.73 L 223.22,199.21 L 222.85,198.44 L 221.99,196.92 L 221.54,196.17 L 220.60,194.83 L 219.21,193.21 L 218.26,192.28 L 216.89,190.25 L 216.61,189.76 L 216.23,188.83 L 216.00,187.60 L 216.00,186.98 L 215.58,185.94 L 215.30,185.45 L 214.30,184.66 L 213.73,184.29 L 212.12,183.73 L 209.00,183.12 L 208.86,183.11 L 208.61,182.81 L 208.49,182.63 L 208.29,182.06 L 208.00,179.67 L 208.00,178.75 L 207.90,177.57 L 207.85,177.32 L 207.61,176.93 L 207.47,176.76 L 207.00,176.51 L 206.73,176.39 L 205.95,176.24 L 205.51,176.17 L 204.34,176.09 L 203.70,176.05 L 202.07,176.00 L 199.00,175.93 L 193.01,175.80 L 194.99,173.15 L 195.48,172.49 L 196.33,171.37 L 196.73,170.84 L 197.41,169.96 L 198.05,169.14 L 198.96,168.09 L 199.36,167.66 L 199.94,167.22 L 200.65,167.00 L 200.71,167.00 L 201.28,167.51 L 201.63,167.84 L 202.74,168.95 L 203.35,169.58 L 204.92,171.20 L 205.75,172.07 L 207.69,174.12 L 208.70,175.19 L 210.94,177.59 L 212.08,178.82 L 214.54,181.46 L 217.03,184.15 L 222.33,189.92 L 224.98,192.82 L 230.12,198.47 L 231.36,199.84 L 233.71,202.44 L 234.85,203.71 L 236.93,206.04 L 237.93,207.17 L 239.68,209.14 L 240.50,210.08 L 241.82,211.61 L 242.42,212.32 L 243.25,213.32 L 243.83,214.13 L 243.85,214.18 L 243.73,214.45 L 243.65,214.61 L 243.32,215.09 L 243.13,215.36 L 242.58,216.05 L 242.28,216.43 L 241.52,217.34 L 241.12,217.83 L 240.14,218.96 L 239.63,219.55 L 238.44,220.90 L 237.82,221.60 L 236.41,223.17 L 235.68,223.98 L 234.06,225.77 L 233.22,226.69 L 231.38,228.70 L 230.43,229.74 L 228.37,231.97 L 227.31,233.11 L 225.03,235.57 L 223.86,236.82 L 221.35,239.50 L 220.08,240.87 L 217.35,243.77 L 215.96,245.25 L 213.01,248.38 L 211.51,249.98 L 208.34,253.33 L 203.33,258.62 L 201.36,260.70 L 197.77,264.53 L 196.91,265.45 L 195.33,267.15 L 194.57,267.97 L 193.21,269.45 L 192.56,270.16 L 191.46,271.37 L 190.94,271.95 L 190.13,272.86 L 189.77,273.28 L 189.29,273.84 L 189.00,274.25 L 189.00,274.39 L 189.61,274.78 L 191.07,275.31 L 191.51,275.42 L 192.10,275.67 L 192.34,275.79 L 192.57,276.13 L 192.64,276.32 L 192.53,276.84 L 192.04,277.93 L 191.74,278.49 L 190.73,279.28 L 190.18,279.61 L 188.91,279.90 L 188.27,279.97 L 187.02,279.73 L 186.43,279.53 M 199.42,278.69 L 199.10,278.32 L 198.79,277.49 L 198.69,277.08 L 198.78,276.29 L 198.87,275.92 L 199.32,275.37 L 200.33,275.00 L 200.39,275.00 L 200.83,274.65 L 201.10,274.43 L 201.93,273.66 L 202.39,273.22 L 203.58,272.05 L 204.22,271.43 L 205.73,269.90 L 206.53,269.10 L 208.33,267.26 L 209.27,266.30 L 211.33,264.17 L 212.39,263.07 L 214.68,260.69 L 215.85,259.48 L 218.32,256.88 L 220.84,254.24 L 226.30,248.46 L 229.08,245.51 L 234.87,239.33 L 237.77,236.21 L 243.61,229.91 L 252.13,220.64 L 257.76,214.47 L 234.13,188.60 L 232.50,186.82 L 229.34,183.35 L 227.79,181.64 L 224.81,178.37 L 223.35,176.76 L 220.63,173.76 L 219.30,172.30 L 216.90,169.64 L 215.75,168.36 L 213.74,166.12 L 212.79,165.07 L 211.25,163.33 L 210.54,162.53 L 209.52,161.38 L 208.67,160.38 L 208.22,159.79 L 207.69,158.95 L 207.49,158.55 L 207.53,157.77 L 207.63,157.36 L 208.34,156.24 L 208.57,155.92 L 209.16,155.16 L 210.27,153.76 L 210.80,153.10 L 211.70,151.93 L 212.12,151.36 L 212.82,150.35 L 213.46,149.37 L 214.20,147.80 L 214.48,147.05 L 214.54,145.77 L 213.96,143.93 L 213.72,143.48 L 213.13,142.80 L 212.82,142.50 L 212.09,142.11 L 211.72,141.95 L 210.89,141.84 L 210.46,141.82 L 209.54,141.98 L 209.07,142.09 L 208.09,142.52 L 207.59,142.77 L 206.57,143.46 L 203.45,146.50 L 203.00,147.05 L 202.24,147.96 L 201.87,148.38 L 201.24,149.06 L 200.62,149.69 L 199.47,150.40 L 198.86,150.69 L 197.29,150.92 L 196.85,150.96 L 195.79,150.99 L 193.88,151.00 L 193.07,151.00 L 191.60,151.06 L 190.89,151.09 L 189.73,151.21 L 189.19,151.27 L 188.46,151.43 L 188.00,151.70 L 188.00,151.80 L 188.23,152.22 L 188.37,152.45 L 188.84,153.09 L 190.87,155.45 L 193.75,158.50 L 179.29,176.50 L 177.30,178.97 L 173.52,183.68 L 172.61,184.82 L 170.88,186.97 L 170.04,188.01 L 168.50,189.94 L 167.75,190.86 L 166.44,192.50 L 165.81,193.28 L 164.76,194.59 L 164.28,195.19 L 163.55,196.10 L 162.86,196.96 L 162.46,197.45 L 161.85,198.11 L 161.56,198.39 L 161.11,198.64 L 160.89,198.73 L 160.53,198.61 L 160.03,198.04 L 159.79,197.67 L 159.65,196.46 L 159.92,194.58 L 160.03,194.30 L 160.20,193.45 L 160.29,193.00 L 160.41,191.92 L 160.54,188.45 L 160.51,187.50 L 160.54,186.21 L 160.59,185.64 L 160.87,184.96 L 161.06,184.68 L 161.73,184.39 L 163.35,184.17 L 164.25,184.10 L 165.63,183.87 L 166.26,183.74 L 167.09,183.37 L 167.45,183.16 L 167.77,182.63 L 167.70,181.65 L 167.58,181.33 L 167.64,180.18 L 168.10,178.25 L 168.25,177.83 L 168.65,177.20 L 168.87,176.91 L 169.43,176.50 L 169.74,176.32 L 170.52,176.12 L 172.00,176.00 L 172.77,176.00 L 173.85,175.88 L 174.32,175.77 L 174.97,175.23 L 175.27,174.88 L 175.72,173.64 L 175.84,173.28 L 176.07,172.37 L 176.45,170.71 L 176.61,169.94 L 177.16,168.91 L 177.31,168.72 L 177.60,168.51 L 178.03,168.52 L 178.30,168.68 L 178.71,168.67 L 179.00,168.19 L 179.00,168.06 L 179.22,167.86 L 179.36,167.76 L 179.82,167.63 L 181.79,167.59 L 184.58,167.91 L 184.42,157.47 L 184.39,155.80 L 184.42,152.96 L 184.45,151.62 L 184.59,149.50 L 184.67,148.54 L 184.91,147.20 L 185.38,146.11 L 185.77,145.79 L 186.97,145.34 L 187.62,145.15 L 189.20,144.97 L 190.01,144.91 L 191.77,145.01 L 194.41,145.49 L 195.30,145.74 L 196.79,145.64 L 197.48,145.49 L 198.54,144.62 L 199.02,144.10 L 199.63,142.50 L 200.00,139.31 L 200.00,138.35 L 200.35,136.90 L 200.47,136.59 L 200.75,136.17 L 201.25,135.87 L 202.30,135.76 L 205.13,135.74 L 206.59,135.77 L 209.61,135.97 L 211.07,136.09 L 213.47,136.44 L 213.99,136.54 L 214.77,136.74 L 215.46,137.06 L 215.54,137.14 L 215.68,137.53 L 215.75,137.76 L 215.88,138.45 L 216.01,139.21 L 216.21,141.49 L 216.30,142.75 L 216.42,145.88 L 216.50,151.30 L 216.50,153.12 L 216.54,156.54 L 216.56,158.20 L 216.65,161.06 L 216.69,162.40 L 216.81,164.38 L 216.84,164.80 L 216.90,165.43 L 217.00,166.00 L 217.07,166.21 L 217.43,166.62 L 217.64,166.83 L 218.23,167.21 L 220.50,168.00 L 221.07,168.09 L 221.94,168.36 L 222.34,168.51 L 222.93,168.93 L 223.19,169.17 L 223.53,169.79 L 223.85,171.00 L 223.94,171.71 L 224.34,172.99 L 224.57,173.60 L 225.14,174.58 L 225.43,175.01 L 226.06,175.50 L 226.95,175.53 L 227.25,175.35 L 228.24,175.63 L 228.77,175.85 L 229.92,176.70 L 230.48,177.16 L 231.38,178.22 L 232.00,179.69 L 232.00,180.15 L 232.63,181.32 L 233.01,181.91 L 234.09,183.04 L 234.65,183.57 L 235.78,184.28 L 236.05,184.41 L 236.52,184.53 L 237.08,184.45 L 237.30,184.32 L 237.89,184.63 L 238.19,184.86 L 238.79,185.66 L 239.07,186.09 L 239.48,187.07 L 239.65,188.39 L 239.60,188.67 L 239.94,189.23 L 240.18,189.51 L 241.03,190.06 L 241.52,190.32 L 242.83,190.82 L 245.25,191.46 L 245.84,191.58 L 246.67,191.88 L 247.04,192.05 L 247.51,192.55 L 247.70,192.83 L 247.90,193.67 L 248.00,195.45 L 248.00,196.08 L 248.10,197.09 L 248.17,197.55 L 248.44,198.25 L 248.60,198.57 L 249.06,199.02 L 249.99,199.50 L 250.54,199.67 L 251.66,199.78 L 252.88,199.58 L 253.24,199.35 L 254.02,199.58 L 254.40,199.79 L 255.06,200.66 L 255.37,201.15 L 255.74,202.38 L 255.79,204.30 L 255.67,204.96 L 255.84,206.17 L 256.00,206.75 L 256.64,207.71 L 257.01,208.14 L 258.01,208.70 L 259.77,208.94 L 260.68,208.85 L 261.97,208.86 L 262.53,208.90 L 263.25,209.27 L 263.55,209.51 L 263.85,210.37 L 264.00,212.34 L 264.00,212.98 L 263.88,214.00 L 263.80,214.47 L 263.48,215.21 L 263.29,215.55 L 262.72,216.10 L 261.54,216.80 L 261.20,216.96 L 260.38,217.56 L 259.95,217.90 L 259.04,218.79 L 256.50,222.00 L 256.15,222.56 L 255.44,223.54 L 255.10,224.01 L 254.46,224.74 L 254.16,225.06 L 253.66,225.46 L 253.16,225.60 L 252.95,225.47 L 252.26,225.85 L 251.16,227.12 L 250.89,227.54 L 250.58,228.14 L 250.45,228.39 L 250.44,228.70 L 250.47,228.82 L 250.78,228.89 L 251.60,228.80 L 252.07,228.72 L 252.91,228.92 L 253.69,229.62 L 253.75,229.80 L 253.65,230.08 L 253.57,230.20 L 253.19,230.36 L 252.96,230.43 L 252.31,230.47 L 251.04,230.39 L 250.33,230.31 L 249.36,230.28 L 248.95,230.30 L 248.45,230.59 L 248.25,230.78 L 248.07,231.54 L 248.00,233.36 L 248.00,234.35 L 247.58,236.02 L 247.29,236.80 L 246.33,238.06 L 245.78,238.64 L 244.29,239.46 L 241.50,240.17 L 240.86,240.24 L 239.93,240.46 L 239.52,240.59 L 238.98,241.02 L 238.74,241.28 L 238.46,242.06 L 238.19,243.77 L 238.10,244.70 L 237.67,245.92 L 237.56,246.16 L 237.29,246.42 L 236.87,246.42 L 236.55,246.22 L 235.56,246.51 L 235.03,246.74 L 233.83,247.69 L 233.23,248.23 L 232.13,249.58 L 230.90,251.77 L 230.66,252.39 L 229.61,253.63 L 227.73,254.91 L 226.98,255.20 L 225.69,255.99 L 225.09,256.41 L 224.18,257.36 L 223.78,257.84 L 223.38,258.78 L 223.51,260.02 L 223.64,260.23 L 223.69,260.71 L 223.69,260.96 L 223.51,261.50 L 223.29,262.05 L 222.37,263.11 L 221.86,263.60 L 220.64,264.28 L 218.91,264.47 L 218.51,264.34 L 217.73,264.58 L 217.36,264.77 L 216.70,265.56 L 216.39,266.02 L 215.93,267.26 L 215.52,269.50 L 215.51,269.64 L 215.21,269.87 L 215.02,269.98 L 214.42,270.15 L 211.86,270.30 L 211.00,270.25 L 209.85,270.25 L 209.36,270.29 L 208.77,270.58 L 208.54,270.78 L 208.33,271.51 L 208.23,273.30 L 208.22,274.15 L 208.20,275.54 L 208.19,276.19 L 208.14,277.22 L 208.10,277.70 L 207.99,278.42 L 207.92,278.74 L 207.71,279.20 L 207.46,279.61 L 206.54,279.90 L 204.25,279.96 L 203.22,279.95 L 201.29,279.57 L 200.85,279.46 L 200.14,279.17 L 199.82,279.02 M 95.68,277.60 L 95.52,277.20 L 95.45,275.73 L 95.71,273.31 L 96.09,271.55 L 96.29,267.55 L 96.30,266.56 L 96.16,264.61 L 95.75,261.91 L 95.60,261.19 L 95.62,259.66 L 96.10,257.91 L 96.28,257.63 L 96.78,257.46 L 97.06,257.45 L 97.87,257.87 L 98.32,258.16 L 99.56,259.25 L 102.07,261.74 L 107.12,266.98 L 102.45,272.74 L 101.80,273.55 L 100.69,274.89 L 100.17,275.52 L 99.30,276.52 L 98.89,276.98 L 98.22,277.67 L 97.91,277.98 L 97.40,278.39 L 97.17,278.55 L 96.80,278.70 L 96.62,278.74 L 96.34,278.64 L 96.08,278.50 M 101.19,246.48 L 99.64,244.77 L 96.85,241.56 L 95.53,240.01 L 93.39,237.37 L 92.90,236.76 L 92.09,235.70 L 91.72,235.19 L 91.15,234.37 L 90.90,234.00 L 90.61,233.45 L 90.50,233.00 L 90.88,232.39 L 91.89,231.88 L 92.43,231.74 L 93.60,232.10 L 94.19,232.38 L 95.31,233.51 L 96.71,235.96 L 97.14,237.04 L 97.99,238.70 L 98.19,239.05 L 98.52,239.50 L 98.88,239.76 L 99.43,239.62 L 100.60,239.82 L 101.18,239.98 L 102.25,240.64 L 102.76,241.01 L 103.51,241.96 L 104.00,243.53 L 104.00,244.37 L 104.59,245.67 L 104.99,246.26 L 106.40,247.07 L 107.21,247.42 L 109.46,247.77 L 113.83,247.77 L 114.48,247.73 L 115.58,247.64 L 116.10,247.60 L 116.94,247.50 L 117.73,247.39 L 118.68,247.05 L 119.09,246.85 L 119.49,246.22 L 119.81,244.77 L 119.91,243.92 L 120.40,242.57 L 120.70,241.95 L 121.57,241.05 L 122.05,240.67 L 123.28,240.25 L 125.50,240.18 L 126.15,240.26 L 126.86,240.53 L 126.98,240.63 L 127.04,240.95 L 127.03,241.13 L 126.81,241.66 L 126.67,241.96 L 126.14,242.77 L 125.83,243.22 L 124.97,244.38 L 124.49,245.01 L 123.24,246.59 L 120.92,249.50 L 119.93,250.74 L 118.08,253.01 L 117.18,254.10 L 115.65,255.92 L 114.94,256.76 L 113.91,257.93 L 113.69,258.17 L 113.38,258.50 L 113.11,258.73 L 113.07,258.75 L 112.75,258.53 L 112.56,258.37 L 111.98,257.84 L 111.66,257.54 L 110.83,256.72 L 110.39,256.29 L 109.36,255.23 L 108.28,254.12 L 105.63,251.31 L 104.25,249.83 M 89.02,255.62 L 88.87,255.47 L 88.61,254.93 L 88.48,254.64 L 88.30,253.90 L 88.13,253.13 L 88.02,251.34 L 88.01,250.47 L 88.22,249.01 L 88.29,248.71 L 88.49,248.28 L 88.90,248.00 L 89.00,248.00 L 89.43,248.28 L 89.68,248.47 L 90.35,249.04 L 91.05,249.67 L 92.75,251.39 L 93.59,252.27 L 95.00,253.91 L 95.31,254.27 L 95.73,254.86 L 96.00,255.42 L 96.00,255.54 L 95.74,255.73 L 95.57,255.82 L 95.04,255.97 L 94.45,256.10 L 92.85,256.21 L 92.03,256.23 L 90.49,256.10 L 90.14,256.05 L 89.58,255.91 L 89.33,255.83 M 81.64,247.82 L 81.19,247.57 L 80.48,246.47 L 80.00,244.51 L 80.00,243.78 L 79.63,242.60 L 79.38,242.06 L 78.46,241.22 L 77.92,240.84 L 76.40,240.30 L 73.38,239.77 L 73.07,239.75 L 72.58,238.97 L 72.25,237.18 L 72.25,236.56 L 71.61,235.13 L 71.21,234.42 L 70.08,233.12 L 69.49,232.53 L 68.26,231.76 L 67.97,231.62 L 67.43,231.51 L 66.75,231.65 L 66.53,231.79 L 66.23,231.76 L 66.09,231.32 L 66.22,230.60 L 65.73,228.90 L 65.40,228.05 L 64.29,226.45 L 63.69,225.71 L 62.35,224.70 L 62.02,224.50 L 61.37,224.31 L 60.49,224.36 L 60.02,224.54 L 59.07,224.35 L 58.60,224.17 L 57.74,223.37 L 57.34,222.91 L 56.73,221.67 L 56.24,219.50 L 56.11,217.74 L 55.98,213.78 L 55.93,211.80 L 55.95,207.99 L 55.96,207.09 L 56.01,205.45 L 56.03,204.67 L 56.11,203.35 L 56.16,202.73 L 56.27,201.83 L 56.47,201.04 L 56.65,200.76 L 57.57,200.30 L 59.31,199.98 L 60.08,199.98 L 61.39,199.71 L 62.00,199.54 L 62.92,199.00 L 63.32,198.70 L 63.75,197.96 L 63.72,196.71 L 63.64,196.52 L 63.69,196.01 L 63.75,195.74 L 64.01,195.13 L 64.31,194.51 L 65.34,193.19 L 65.89,192.57 L 67.09,191.61 L 67.38,191.42 L 67.92,191.18 L 68.61,191.11 L 69.21,191.25 L 70.25,191.10 L 70.73,190.96 L 71.47,190.31 L 71.79,189.93 L 72.16,188.89 L 72.21,186.96 L 72.13,186.46 L 72.10,185.64 L 72.10,185.27 L 72.21,184.70 L 72.29,184.45 L 72.56,184.12 L 73.14,183.89 L 73.51,183.86 L 74.68,183.78 L 76.49,183.64 L 76.80,183.62 L 77.44,183.33 L 77.76,183.14 L 78.41,182.55 L 80.22,179.80 L 80.61,178.97 L 81.25,177.84 L 81.56,177.35 L 82.20,176.78 L 82.54,176.55 L 83.38,176.39 L 85.09,176.49 L 85.95,176.60 L 87.12,176.59 L 87.35,176.57 L 87.60,176.48 L 87.62,176.28 L 87.45,176.12 L 87.52,175.47 L 88.13,174.35 L 88.43,173.98 L 88.76,172.83 L 88.73,171.07 L 88.59,170.55 L 88.70,169.71 L 88.83,169.33 L 89.46,168.75 L 89.84,168.50 L 91.01,168.19 L 93.36,168.00 L 93.78,168.00 L 94.42,167.87 L 94.71,167.77 L 95.13,167.42 L 95.32,167.22 L 95.57,166.61 L 95.78,165.35 L 95.85,164.53 L 96.23,163.13 L 96.46,162.47 L 97.13,161.44 L 97.50,160.98 L 98.41,160.37 L 100.02,160.00 L 100.40,160.00 L 101.16,159.66 L 101.53,159.44 L 102.19,158.73 L 102.50,158.35 L 102.99,157.39 L 103.41,155.78 L 103.48,155.26 L 104.12,154.19 L 104.51,153.68 L 105.60,152.77 L 106.19,152.36 L 107.48,151.79 L 109.35,151.53 L 110.06,151.61 L 111.13,151.54 L 111.34,151.51 L 111.62,151.39 L 111.76,151.16 L 111.73,151.07 L 111.74,150.66 L 111.75,150.43 L 111.82,149.79 L 112.23,147.44 L 112.39,146.68 L 112.71,145.68 L 112.90,145.26 L 113.60,144.78 L 114.04,144.59 L 115.55,144.46 L 116.00,144.44 L 117.12,144.43 L 119.19,144.44 L 120.10,144.45 L 121.67,144.50 L 122.41,144.53 L 123.65,144.64 L 124.24,144.70 L 125.19,144.89 L 125.64,144.99 L 126.34,145.27 L 126.98,145.57 L 127.65,146.51 L 128.00,148.56 L 128.00,149.14 L 127.86,149.93 L 127.74,150.27 L 127.08,150.66 L 126.65,150.82 L 125.11,150.95 L 124.66,150.97 L 123.52,150.99 L 121.43,151.00 L 114.86,151.00 L 104.61,161.75 L 103.77,162.63 L 101.88,164.62 L 100.91,165.65 L 98.77,167.91 L 96.59,170.23 L 91.70,175.43 L 86.72,180.75 L 76.34,191.90 L 73.84,194.59 L 69.26,199.54 L 68.17,200.72 L 66.14,202.91 L 65.16,203.98 L 63.41,205.89 L 62.57,206.80 L 61.13,208.38 L 60.45,209.12 L 59.38,210.30 L 58.90,210.84 L 58.25,211.58 L 57.81,212.12 L 57.79,212.16 L 58.06,212.59 L 58.24,212.85 L 58.89,213.68 L 59.26,214.14 L 60.25,215.33 L 60.78,215.97 L 62.07,217.47 L 62.75,218.25 L 64.29,220.02 L 65.09,220.93 L 66.86,222.92 L 72.75,229.46 L 74.85,231.76 L 78.64,236.01 L 79.54,237.03 L 81.18,238.93 L 81.98,239.84 L 83.38,241.50 L 84.05,242.29 L 85.18,243.66 L 85.70,244.31 L 86.50,245.34 L 86.86,245.81 L 87.31,246.47 L 87.52,246.97 L 87.31,247.30 L 86.50,247.80 L 86.04,248.02 L 84.92,248.26 L 84.34,248.34 L 83.17,248.28 L 82.61,248.21 M 127.88,237.75 L 127.81,236.98 L 127.82,235.82 L 127.85,235.40 L 127.98,234.02 L 128.02,233.60 L 128.12,232.57 L 128.32,230.64 L 128.46,229.32 L 128.78,227.42 L 128.96,226.58 L 129.48,225.46 L 129.78,224.97 L 130.64,224.38 L 132.50,223.83 L 132.81,223.78 L 133.41,223.45 L 133.71,223.25 L 134.26,222.65 L 135.62,220.03 L 135.81,219.43 L 136.28,218.43 L 136.52,217.97 L 137.10,217.23 L 137.40,216.90 L 138.12,216.39 L 139.37,215.88 L 140.09,215.68 L 141.23,215.54 L 141.47,215.52 L 141.79,215.56 L 142.00,215.71 L 142.00,215.86 L 142.41,215.75 L 143.40,215.09 L 143.78,214.77 L 144.23,213.69 L 144.28,211.96 L 144.08,211.21 L 144.25,209.88 L 144.42,209.26 L 145.20,208.30 L 145.66,207.87 L 146.92,207.40 L 149.19,207.39 L 149.83,207.52 L 150.71,207.61 L 151.09,207.62 L 151.55,207.41 L 151.74,207.25 L 151.92,206.62 L 152.00,205.10 L 152.00,204.22 L 152.37,202.79 L 152.62,202.13 L 153.45,201.16 L 153.92,200.74 L 155.18,200.27 L 157.49,200.18 L 157.80,200.22 L 158.25,200.36 L 158.44,200.46 L 158.58,200.81 L 158.61,201.02 L 158.37,201.71 L 158.19,202.11 L 157.49,203.26 L 157.07,203.91 L 155.82,205.64 L 155.11,206.60 L 153.23,209.06 L 152.71,209.72 L 151.55,211.21 L 150.94,211.98 L 149.60,213.68 L 148.90,214.57 L 147.35,216.51 L 144.80,219.72 L 142.70,222.36 L 138.80,227.18 L 137.87,228.33 L 136.13,230.45 L 135.29,231.47 L 133.77,233.30 L 133.05,234.17 L 131.79,235.66 L 131.20,236.35 L 130.25,237.44 L 129.82,237.93 L 129.21,238.57 L 128.75,238.97 L 128.54,238.98 L 128.19,238.62 L 128.03,238.40 M 79.17,222.13 L 78.05,220.90 L 76.00,218.60 L 75.02,217.49 L 73.40,215.59 L 72.66,214.71 L 71.64,213.43 L 71.44,213.16 L 71.17,212.76 L 71.00,212.43 L 71.00,212.32 L 71.45,211.65 L 71.75,211.25 L 72.69,210.10 L 73.21,209.48 L 74.52,208.00 L 76.75,205.58 L 77.15,205.16 L 78.36,203.87 L 79.04,203.15 L 80.76,201.33 L 81.67,200.36 L 83.82,198.09 L 84.93,196.90 L 87.42,194.26 L 88.70,192.90 L 91.46,189.97 L 92.86,188.48 L 95.81,185.35 L 105.00,175.59 L 106.20,174.32 L 108.43,171.96 L 109.51,170.82 L 111.50,168.72 L 112.46,167.70 L 114.23,165.84 L 115.09,164.94 L 116.65,163.32 L 117.40,162.54 L 118.77,161.14 L 119.43,160.46 L 120.61,159.27 L 121.75,158.12 L 123.53,156.41 L 124.35,155.64 L 125.56,154.60 L 126.11,154.16 L 126.86,153.71 L 127.19,153.54 L 127.57,153.58 L 127.85,154.08 L 127.91,154.51 L 127.82,155.34 L 127.74,155.76 L 127.32,156.60 L 127.06,157.03 L 126.28,157.95 L 124.65,159.48 L 123.67,160.31 L 121.83,162.44 L 121.41,162.97 L 120.73,163.99 L 120.05,165.32 L 119.83,165.89 L 119.41,166.70 L 119.19,167.06 L 118.68,167.52 L 118.40,167.70 L 117.71,167.86 L 116.36,167.82 L 115.69,167.74 L 114.70,167.79 L 114.25,167.87 L 113.52,168.44 L 113.16,168.81 L 112.45,170.13 L 112.26,170.52 L 111.84,171.49 L 111.13,173.25 L 110.94,173.74 L 110.50,174.50 L 110.27,174.85 L 109.73,175.35 L 109.45,175.58 L 108.79,175.84 L 107.63,176.00 L 107.02,176.00 L 106.03,176.31 L 105.58,176.51 L 104.90,177.24 L 104.60,177.65 L 104.22,178.79 L 104.00,180.98 L 104.00,181.23 L 103.71,181.94 L 103.52,182.32 L 102.90,183.22 L 100.27,186.07 L 99.59,186.66 L 98.53,187.76 L 98.05,188.30 L 97.34,189.34 L 97.03,189.87 L 96.63,190.93 L 96.33,192.63 L 96.26,193.73 L 95.86,195.64 L 95.63,196.54 L 94.93,197.98 L 94.55,198.63 L 93.61,199.51 L 91.96,200.12 L 90.99,200.19 L 89.63,200.32 L 89.03,200.40 L 88.23,200.67 L 87.87,200.83 L 87.36,201.33 L 86.61,202.50 L 86.28,203.10 L 85.61,204.05 L 85.27,204.48 L 84.62,205.08 L 84.30,205.34 L 83.70,205.57 L 82.91,205.45 L 82.57,205.23 L 81.92,205.34 L 81.62,205.46 L 81.07,206.14 L 80.81,206.53 L 80.38,207.62 L 80.18,208.21 L 79.90,209.56 L 79.66,210.95 L 79.72,213.88 L 79.79,214.57 L 80.11,215.80 L 80.86,217.25 L 81.26,217.73 L 81.67,218.49 L 81.59,219.00 L 81.49,219.00 L 81.55,219.22 L 81.61,219.36 L 81.95,219.81 L 83.81,221.75 L 84.73,222.61 L 86.17,224.23 L 86.82,225.03 L 87.70,226.48 L 88.07,227.17 L 88.36,228.38 L 88.10,229.84 L 87.97,230.04 L 87.26,229.83 L 86.83,229.62 L 85.51,228.55 L 85.14,228.23 L 84.28,227.43 L 83.83,227.01 L 82.82,225.99 L 82.29,225.46 L 81.12,224.22 L 80.51,223.58 M 162.13,214.06 L 162.37,213.72 L 163.11,212.74 L 163.51,212.20 L 164.52,210.89 L 165.06,210.20 L 166.31,208.61 L 166.96,207.79 L 168.39,205.98 L 169.87,204.13 L 173.19,200.01 L 174.88,197.91 L 178.36,193.64 L 180.09,191.52 L 183.37,187.54 L 184.16,186.59 L 185.64,184.81 L 186.36,183.94 L 187.66,182.39 L 188.28,181.65 L 189.36,180.38 L 189.87,179.79 L 190.69,178.86 L 191.05,178.44 L 191.55,177.91 L 191.90,177.61 L 192.10,177.78 L 192.29,178.61 L 192.36,179.08 L 192.33,180.35 L 192.25,181.70 L 191.61,184.94 L 191.43,185.73 L 191.00,187.21 L 190.78,187.91 L 190.30,189.07 L 190.06,189.60 L 189.59,190.25 L 188.92,190.45 L 188.67,190.29 L 188.27,190.31 L 188.00,190.77 L 188.00,191.02 L 187.28,191.78 L 185.56,192.97 L 185.09,193.22 L 184.40,193.73 L 184.10,194.00 L 183.72,194.60 L 183.56,194.92 L 183.43,195.69 L 183.49,197.13 L 183.57,197.75 L 183.59,198.61 L 183.58,199.00 L 183.37,199.48 L 183.22,199.69 L 182.71,199.90 L 181.51,200.00 L 180.55,200.00 L 179.04,200.20 L 178.34,200.34 L 177.32,200.84 L 176.87,201.12 L 176.32,201.92 L 176.00,203.48 L 176.00,204.18 L 175.65,205.36 L 175.43,205.91 L 174.63,206.79 L 174.18,207.19 L 172.96,207.75 L 170.65,208.22 L 170.11,208.26 L 169.33,208.43 L 168.98,208.54 L 168.55,208.88 L 168.37,209.09 L 168.21,209.70 L 168.20,211.00 L 168.27,211.91 L 168.12,213.33 L 168.00,213.97 L 167.42,214.88 L 167.08,215.27 L 166.02,215.73 L 163.82,216.00 L 163.11,216.00 L 162.18,215.95 L 161.79,215.91 L 161.43,215.70 L 161.32,215.57 L 161.46,215.12 L 161.58,214.86 M 154.40,151.23 L 154.25,151.13 L 153.87,150.71 L 153.66,150.47 L 153.21,149.83 L 151.89,147.50 L 151.52,146.71 L 150.70,145.60 L 150.25,145.11 L 148.92,144.50 L 148.54,144.37 L 147.60,144.17 L 147.09,144.08 L 145.86,143.95 L 145.21,143.90 L 143.64,143.82 L 140.84,143.74 L 139.71,143.71 L 138.19,143.61 L 137.54,143.54 L 136.76,143.19 L 136.43,142.97 L 136.10,142.17 L 135.78,140.26 L 135.67,139.33 L 135.73,137.73 L 135.76,137.38 L 135.88,136.86 L 136.15,136.41 L 136.20,136.38 L 136.50,136.41 L 136.68,136.44 L 137.21,136.59 L 137.80,136.76 L 139.55,137.42 L 140.51,137.79 L 142.83,138.77 L 146.68,140.51 L 156.46,145.08 L 164.98,141.12 L 166.33,140.49 L 168.56,139.47 L 169.61,138.99 L 171.31,138.25 L 172.10,137.91 L 173.33,137.44 L 173.90,137.23 L 174.74,137.01 L 175.13,136.93 L 175.66,136.94 L 175.90,136.98 L 176.19,137.22 L 176.57,138.67 L 176.64,139.72 L 176.46,141.18 L 176.36,141.51 L 176.00,142.05 L 175.79,142.31 L 175.14,142.73 L 174.78,142.93 L 173.79,143.28 L 173.24,143.45 L 171.83,143.76 L 171.06,143.91 L 169.17,144.21 L 165.70,144.70 L 165.03,144.79 L 163.88,145.09 L 163.33,145.26 L 162.40,145.72 L 161.96,145.98 L 161.20,146.63 L 160.22,147.86 L 159.82,148.50 L 159.02,149.59 L 158.62,150.09 L 157.88,150.88 L 157.51,151.23 L 156.86,151.69 L 156.00,151.97 L 155.86,151.97 L 155.33,151.75 L 155.04,151.62 M 122.57,136.04 L 122.29,135.94 L 121.71,135.47 L 121.42,135.19 L 120.86,134.43 L 119.49,131.42 L 119.31,130.79 L 118.91,129.76 L 118.70,129.29 L 118.27,128.60 L 118.06,128.30 L 117.61,127.95 L 116.92,127.84 L 116.07,128.04 L 113.74,128.23 L 112.52,128.29 L 109.98,128.22 L 108.74,128.16 L 106.67,127.87 L 106.21,127.78 L 105.50,127.58 L 104.82,127.22 L 104.63,127.03 L 104.27,126.17 L 104.11,125.67 L 103.82,124.35 L 103.56,122.94 L 103.26,119.44 L 103.16,117.69 L 103.26,114.51 L 103.31,113.80 L 103.50,112.67 L 103.93,111.58 L 104.06,111.43 L 104.26,110.91 L 104.35,110.62 L 104.48,109.87 L 104.59,109.07 L 104.60,106.93 L 104.57,105.81 L 104.31,103.30 L 103.63,99.50 L 103.50,98.95 L 103.27,97.94 L 103.08,97.00 L 103.07,96.93 L 102.63,96.79 L 102.36,96.72 L 101.48,96.59 L 101.00,96.53 L 99.79,96.42 L 97.75,96.31 L 96.31,96.26 L 93.60,96.14 L 92.99,96.11 L 92.00,96.05 L 91.00,95.99 L 90.79,95.97 L 90.11,95.95 L 89.73,95.95 L 88.80,95.96 L 85.61,96.09 L 84.57,96.16 L 82.82,95.89 L 82.01,95.69 L 80.79,94.94 L 80.25,94.51 L 79.62,93.34 L 79.44,91.19 L 79.54,90.54 L 80.22,89.72 L 80.44,89.56 L 81.02,89.36 L 81.34,89.28 L 82.14,89.25 L 82.56,89.25 L 83.60,89.39 L 84.15,89.48 L 85.44,89.78 L 86.11,89.95 L 87.68,90.42 L 90.36,91.31 L 92.32,91.99 L 96.80,93.43 L 97.88,93.77 L 99.84,94.36 L 102.25,95.03 L 107.00,96.26 L 107.00,108.93 L 107.00,121.61 L 119.50,127.44 L 121.22,128.24 L 124.35,129.78 L 125.85,130.52 L 128.33,131.82 L 128.89,132.13 L 129.86,132.67 L 130.31,132.93 L 131.01,133.36 L 131.33,133.56 L 131.74,133.87 L 132.00,134.17 L 132.00,134.38 L 131.72,134.78 L 131.54,134.97 L 130.95,135.32 L 130.30,135.66 L 128.41,136.14 L 127.42,136.34 L 125.31,136.44 L 124.28,136.44 M 180.03,136.05 L 179.57,135.75 L 179.08,135.31 L 179.01,135.19 L 179.06,134.95 L 179.12,134.82 L 179.45,134.50 L 179.66,134.34 L 180.35,133.91 L 180.74,133.68 L 181.83,133.09 L 182.43,132.78 L 183.98,131.99 L 186.89,130.53 L 187.64,130.16 L 188.92,129.53 L 189.53,129.24 L 190.54,128.77 L 191.02,128.55 L 191.79,128.23 L 192.14,128.09 L 192.69,127.92 L 193.19,127.78 L 193.61,127.91 L 193.57,128.67 L 193.37,129.17 L 192.91,130.77 L 192.30,133.25 L 192.15,134.01 L 191.73,135.22 L 191.62,135.48 L 191.41,135.84 L 191.12,136.09 L 189.83,136.27 L 187.38,136.49 L 186.19,136.58 L 184.08,136.62 L 183.09,136.62 L 181.53,136.47 L 180.84,136.38 M 195.00,127.27 L 195.00,127.16 L 195.41,126.75 L 195.68,126.53 L 196.54,125.95 L 197.02,125.65 L 198.21,124.98 L 200.25,123.94 L 201.45,123.37 L 203.10,122.47 L 203.83,122.04 L 204.76,121.20 L 205.15,120.76 L 205.61,119.68 L 206.07,117.47 L 206.63,113.50 L 207.90,116.50 L 208.32,117.52 L 208.64,119.75 L 208.33,123.50 L 207.50,127.50 L 201.25,127.80 L 200.39,127.84 L 198.82,127.85 L 198.08,127.84 L 196.84,127.77 L 196.27,127.72 L 195.49,127.57 L 195.18,127.48 M 210.21,95.46 L 210.23,95.44 L 210.52,95.32 L 210.70,95.25 L 211.27,95.04 L 211.91,94.82 L 213.88,94.15 L 214.95,93.80 L 217.52,92.95 L 218.85,92.52 L 221.68,91.60 L 223.10,91.15 L 225.86,90.27 L 227.20,89.85 L 229.55,89.12 L 230.64,88.78 L 232.24,88.31 L 232.58,88.21 L 233.06,88.08 L 233.43,88.00 L 233.47,88.00 L 233.54,88.24 L 233.58,88.39 L 233.64,88.88 L 233.78,91.00 L 233.81,91.93 L 233.39,93.44 L 232.18,94.89 L 232.08,94.94 L 231.67,95.04 L 231.42,95.09 L 230.75,95.19 L 230.02,95.28 L 227.97,95.45 L 226.87,95.52 L 224.32,95.65 L 223.01,95.71 L 220.30,95.79 L 218.95,95.83 L 216.39,95.86 L 215.16,95.86 L 213.08,95.83 L 212.13,95.81 L 210.85,95.70 L 210.60,95.67 L 210.30,95.59 L 210.19,95.55 M 71.00,89.15 L 70.31,89.06 L 68.94,88.68 L 67.50,88.04 L 67.36,87.93 L 66.80,87.75 L 66.47,87.67 L 65.62,87.54 L 62.50,87.43 L 61.30,87.47 L 59.46,87.32 L 58.63,87.20 L 57.45,86.67 L 56.94,86.35 L 56.34,85.38 L 56.00,83.38 L 56.00,82.89 L 56.12,82.19 L 56.20,81.88 L 56.54,81.46 L 56.75,81.29 L 57.40,81.10 L 58.80,81.00 L 59.58,81.00 L 60.92,80.72 L 61.55,80.53 L 62.56,79.91 L 63.02,79.57 L 63.63,78.67 L 64.02,77.05 L 64.02,76.21 L 64.41,74.93 L 64.68,74.35 L 65.71,73.53 L 66.32,73.17 L 68.16,72.71 L 68.68,72.61 L 69.89,72.47 L 72.01,72.31 L 73.70,72.23 L 76.95,72.42 L 77.69,72.50 L 78.92,72.71 L 80.20,73.11 L 80.57,73.31 L 81.11,73.55 L 81.34,73.65 L 81.62,73.70 L 81.73,73.70 L 81.77,73.55 L 81.56,73.10 L 81.41,72.86 L 81.55,72.45 L 81.68,72.26 L 82.29,71.99 L 82.63,71.87 L 83.58,71.78 L 85.24,71.88 L 85.34,71.89 L 85.64,71.66 L 85.79,71.50 L 86.17,70.97 L 87.38,68.64 L 87.64,68.02 L 88.21,67.02 L 88.51,66.56 L 89.20,65.86 L 89.58,65.53 L 90.48,65.05 L 92.14,64.51 L 93.06,64.30 L 94.74,64.00 L 95.12,63.95 L 95.72,63.88 L 96.29,63.88 L 96.40,63.90 L 97.11,63.94 L 97.54,63.97 L 98.77,64.01 L 99.43,64.03 L 101.02,64.07 L 103.63,64.12 L 104.44,64.14 L 105.85,64.12 L 106.52,64.11 L 107.67,64.03 L 108.76,63.94 L 110.27,63.54 L 110.93,63.29 L 111.73,62.52 L 112.35,60.88 L 112.45,60.22 L 112.83,59.16 L 113.05,58.67 L 113.64,57.99 L 113.96,57.69 L 114.72,57.41 L 116.00,57.50 L 116.50,57.66 L 117.48,57.60 L 118.47,57.04 L 118.56,56.90 L 119.31,56.64 L 119.77,56.51 L 121.12,56.31 L 121.85,56.21 L 123.62,56.08 L 126.57,56.00 L 127.44,56.00 L 128.91,55.99 L 129.60,55.97 L 130.76,55.92 L 131.85,55.86 L 133.39,55.54 L 134.10,55.33 L 135.29,54.60 L 137.26,52.88 L 138.08,52.09 L 139.98,50.68 L 140.95,50.01 L 142.91,48.97 L 143.87,48.50 L 145.58,47.98 L 147.50,47.94 L 147.57,47.96 L 147.93,48.02 L 148.14,48.04 L 148.76,48.10 L 149.43,48.16 L 151.44,48.29 L 152.53,48.35 L 155.15,48.46 L 159.50,48.61 L 161.36,48.66 L 164.46,48.77 L 165.91,48.82 L 168.27,48.95 L 169.37,49.02 L 171.09,49.20 L 171.88,49.30 L 173.06,49.56 L 173.60,49.70 L 174.34,50.06 L 174.67,50.25 L 175.07,50.74 L 175.24,51.00 L 175.40,51.65 L 175.49,52.82 L 175.49,53.27 L 175.82,53.91 L 176.08,54.20 L 177.25,54.61 L 177.61,54.70 L 178.57,54.87 L 179.10,54.95 L 180.42,55.09 L 181.13,55.17 L 182.87,55.31 L 186.00,55.53 L 187.55,55.64 L 190.18,55.85 L 191.42,55.95 L 193.47,56.17 L 194.43,56.29 L 195.97,56.54 L 196.67,56.67 L 197.75,56.98 L 198.23,57.14 L 198.91,57.52 L 199.20,57.72 L 199.53,58.19 L 199.65,58.43 L 199.69,59.01 L 199.49,60.02 L 199.38,60.39 L 199.36,61.04 L 199.39,61.36 L 199.69,61.91 L 199.87,62.17 L 200.49,62.63 L 200.84,62.84 L 201.80,63.21 L 202.32,63.38 L 203.63,63.67 L 204.33,63.80 L 206.02,64.00 L 206.91,64.09 L 208.98,64.22 L 212.55,64.34 L 213.76,64.36 L 215.82,64.43 L 216.79,64.47 L 218.42,64.60 L 219.18,64.67 L 220.43,64.87 L 221.01,64.98 L 221.93,65.27 L 222.35,65.44 L 222.98,65.84 L 223.27,66.06 L 223.67,66.60 L 224.26,68.81 L 224.29,69.25 L 224.55,69.91 L 224.73,70.21 L 225.40,70.65 L 225.82,70.85 L 227.11,71.17 L 229.93,71.60 L 231.45,71.79 L 235.15,72.08 L 236.06,72.14 L 237.78,72.22 L 239.97,72.26 L 241.09,72.25 L 243.17,72.61 L 244.16,72.83 L 245.78,73.52 L 246.50,73.90 L 247.34,74.78 L 247.49,75.00 L 247.60,75.46 L 247.42,76.13 L 247.27,76.37 L 247.35,76.75 L 247.94,77.00 L 248.23,77.00 L 248.69,77.41 L 249.00,78.39 L 249.00,78.81 L 249.41,79.52 L 249.67,79.84 L 250.47,80.30 L 250.90,80.50 L 251.91,80.63 L 253.46,80.38 L 253.70,80.28 L 254.14,80.30 L 254.35,80.34 L 254.72,80.61 L 254.89,80.79 L 255.20,81.33 L 255.58,82.46 L 255.77,83.23 L 255.92,84.33 L 255.95,84.81 L 255.68,85.46 L 255.49,85.74 L 254.71,86.09 L 252.84,86.43 L 252.20,86.50 L 250.16,86.85 L 247.00,87.49 L 246.02,87.72 L 243.65,88.03 L 242.44,88.16 L 240.05,88.27 L 238.90,88.30 L 237.04,88.20 L 236.64,88.17 L 236.03,88.05 L 235.47,87.80 L 235.40,87.74 L 235.89,87.43 L 236.22,87.25 L 237.40,86.77 L 238.05,86.52 L 239.76,85.93 L 242.73,84.99 L 250.50,82.68 L 204.51,67.34 L 201.35,66.29 L 195.23,64.26 L 192.21,63.26 L 186.49,61.38 L 183.69,60.47 L 178.50,58.78 L 175.98,57.96 L 171.44,56.51 L 169.26,55.81 L 165.51,54.63 L 163.75,54.08 L 160.92,53.21 L 160.27,53.02 L 159.18,52.70 L 158.67,52.55 L 157.85,52.32 L 157.48,52.21 L 156.95,52.08 L 156.51,52.00 L 156.44,52.00 L 156.06,52.08 L 155.84,52.14 L 155.17,52.32 L 154.79,52.42 L 153.84,52.70 L 153.32,52.85 L 152.10,53.22 L 150.81,53.60 L 147.50,54.63 L 145.74,55.19 L 141.58,56.51 L 139.40,57.21 L 134.52,58.78 L 132.00,59.60 L 126.52,61.39 L 123.72,62.30 L 117.78,64.26 L 108.50,67.34 L 62.50,82.67 L 68.92,84.59 L 69.80,84.86 L 71.45,85.45 L 72.24,85.75 L 73.59,86.35 L 74.21,86.65 L 75.11,87.21 L 75.80,87.89 L 75.93,88.29 L 75.83,88.69 L 75.22,88.63 L 74.93,88.46 L 74.38,88.40 L 73.84,88.74 L 73.74,88.95 L 72.86,89.18 L 72.35,89.25 Z" fill="rgb(251,251,251)"/>
</g>
</svg>